<svg xmlns="http://www.w3.org/2000/svg" xmlns:xlink="http://www.w3.org/1999/xlink" width="720" zoomAndPan="magnify" viewBox="0 0 540 540.000001" height="720" preserveAspectRatio="xMidYMid meet" version="1.2"><defs><clipPath id="060f23e1ab"><path d="M 24.390625 17.964844 L 280 17.964844 L 280 512.800781 L 24.390625 512.800781 Z M 24.390625 17.964844 "/></clipPath><clipPath id="e5d739a3a0"><path d="M 164 125 L 502.753906 125 L 502.753906 406 L 164 406 Z M 164 125 "/></clipPath></defs><g id="d8e1b88a0b"><path style=" stroke:none;fill-rule:nonzero;fill:#ffffff;fill-opacity:1;" d="M 262.949219 229.402344 C 261.710938 226.1875 258.660156 224.046875 255.199219 224.046875 C 251.738281 224.046875 248.6875 226.1875 247.449219 229.402344 L 222.722656 295.347656 C 221.15625 299.632812 223.296875 304.332031 227.585938 305.980469 C 231.871094 307.546875 236.570312 305.40625 238.21875 301.117188 L 242.421875 289.988281 L 268.058594 289.988281 L 272.261719 301.117188 C 273.5 304.414062 276.632812 306.476562 280.011719 306.476562 C 281 306.476562 281.988281 306.3125 282.894531 305.980469 C 287.183594 304.414062 289.324219 299.632812 287.675781 295.347656 Z M 248.605469 273.503906 L 255.28125 255.78125 L 261.957031 273.503906 Z M 248.605469 273.503906 "/><path style=" stroke:none;fill-rule:nonzero;fill:#ffffff;fill-opacity:1;" d="M 304.65625 224.046875 C 300.125 224.046875 296.414062 227.753906 296.414062 232.289062 L 296.414062 298.234375 C 296.414062 302.765625 300.125 306.476562 304.65625 306.476562 C 309.191406 306.476562 312.902344 302.765625 312.902344 298.234375 L 312.902344 232.289062 C 312.902344 227.753906 309.191406 224.046875 304.65625 224.046875 Z M 304.65625 224.046875 "/><g clip-rule="nonzero" clip-path="url(#060f23e1ab)"><path style=" stroke:none;fill-rule:nonzero;fill:#ffffff;fill-opacity:1;" d="M 271.683594 405.394531 C 194.449219 405.394531 131.550781 342.5 131.550781 265.261719 C 131.550781 188.023438 194.449219 125.128906 271.683594 125.128906 C 276.21875 125.128906 279.929688 121.417969 279.929688 116.882812 L 279.929688 26.210938 C 279.929688 21.675781 276.21875 17.964844 271.683594 17.964844 L 228.246094 17.964844 C 224.453125 17.964844 221.15625 20.523438 220.25 24.230469 L 208.460938 71.546875 C 198.402344 74.84375 188.675781 78.800781 179.445312 83.5 L 137.652344 58.441406 C 134.4375 56.460938 130.234375 57.039062 127.59375 59.675781 L 66.183594 121.089844 C 63.546875 123.726562 62.96875 127.929688 64.949219 131.144531 L 90.007812 172.9375 C 85.308594 182.171875 81.269531 191.898438 78.054688 201.953125 L 30.738281 213.742188 C 27.03125 214.648438 24.472656 217.945312 24.472656 221.738281 L 24.472656 308.621094 C 24.472656 312.410156 27.03125 315.707031 30.738281 316.617188 L 78.054688 328.402344 C 81.351562 338.460938 85.308594 348.1875 90.007812 357.417969 L 64.949219 399.210938 C 62.96875 402.425781 63.546875 406.628906 66.183594 409.269531 L 127.59375 470.679688 C 130.234375 473.316406 134.4375 473.894531 137.652344 471.917969 L 179.445312 446.855469 C 188.675781 451.554688 198.402344 455.59375 208.460938 458.808594 L 220.25 506.125 C 221.15625 509.835938 224.453125 512.390625 228.246094 512.390625 L 271.683594 512.390625 C 276.21875 512.390625 279.929688 508.679688 279.929688 504.148438 L 279.929688 413.472656 C 279.929688 408.9375 276.21875 405.230469 271.683594 405.230469 Z M 263.441406 496.070312 L 234.675781 496.070312 L 223.296875 450.484375 C 222.554688 447.679688 220.414062 445.457031 217.691406 444.550781 C 205.574219 440.921875 193.871094 436.140625 183.070312 430.289062 C 180.515625 428.886719 177.382812 428.96875 174.910156 430.453125 L 134.683594 454.605469 L 82.339844 402.261719 L 106.492188 362.035156 C 107.976562 359.5625 108.058594 356.429688 106.65625 353.875 C 100.804688 343.074219 96.023438 331.371094 92.398438 319.253906 C 91.574219 316.449219 89.347656 314.308594 86.460938 313.648438 L 40.878906 302.273438 L 40.878906 228.25 L 86.460938 216.875 C 89.265625 216.132812 91.492188 213.988281 92.398438 211.269531 C 96.023438 199.152344 100.804688 187.445312 106.65625 176.648438 C 108.058594 174.089844 107.976562 170.960938 106.492188 168.488281 L 82.339844 128.261719 L 134.683594 75.914062 L 174.910156 100.066406 C 177.382812 101.550781 180.515625 101.632812 183.070312 100.234375 C 193.871094 94.378906 205.574219 89.597656 217.691406 85.972656 C 220.496094 85.148438 222.640625 82.921875 223.296875 80.039062 L 234.675781 34.453125 L 263.441406 34.453125 L 263.441406 108.886719 C 180.929688 113.175781 115.066406 181.675781 115.066406 265.261719 C 115.066406 348.847656 180.929688 417.347656 263.441406 421.632812 Z M 263.441406 496.070312 "/></g><g clip-rule="nonzero" clip-path="url(#e5d739a3a0)"><path style=" stroke:none;fill-rule:nonzero;fill:#ffffff;fill-opacity:1;" d="M 469.519531 232.289062 C 454.1875 232.289062 441.410156 242.839844 437.703125 257.019531 L 354.117188 257.019531 L 354.117188 224.046875 L 387.089844 224.046875 C 389.398438 224.046875 391.625 223.054688 393.1875 221.324219 L 423.359375 188.269531 C 427.398438 190 431.847656 191.074219 436.546875 191.074219 C 454.765625 191.074219 469.519531 176.316406 469.519531 158.101562 C 469.519531 139.882812 454.765625 125.128906 436.546875 125.128906 C 418.332031 125.128906 403.574219 139.882812 403.574219 158.101562 C 403.574219 165.601562 406.214844 172.441406 410.417969 177.964844 L 383.460938 207.558594 L 354.117188 207.558594 L 354.117188 191.074219 C 354.117188 186.539062 350.40625 182.828125 345.875 182.828125 L 329.386719 182.828125 L 329.386719 166.34375 C 329.386719 161.808594 325.679688 158.101562 321.144531 158.101562 C 316.609375 158.101562 312.902344 161.808594 312.902344 166.34375 L 312.902344 182.828125 L 279.929688 182.828125 L 279.929688 166.34375 C 279.929688 161.808594 276.21875 158.101562 271.683594 158.101562 C 267.152344 158.101562 263.441406 161.808594 263.441406 166.34375 L 263.441406 182.828125 L 230.46875 182.828125 L 230.46875 166.34375 C 230.46875 161.808594 226.761719 158.101562 222.226562 158.101562 C 217.691406 158.101562 213.984375 161.808594 213.984375 166.34375 L 213.984375 182.828125 L 197.496094 182.828125 C 192.964844 182.828125 189.253906 186.539062 189.253906 191.074219 L 189.253906 207.558594 L 172.769531 207.558594 C 168.234375 207.558594 164.523438 211.269531 164.523438 215.800781 C 164.523438 220.335938 168.234375 224.046875 172.769531 224.046875 L 189.253906 224.046875 L 189.253906 257.019531 L 172.769531 257.019531 C 168.234375 257.019531 164.523438 260.726562 164.523438 265.261719 C 164.523438 269.792969 168.234375 273.503906 172.769531 273.503906 L 189.253906 273.503906 L 189.253906 306.476562 L 172.769531 306.476562 C 168.234375 306.476562 164.523438 310.1875 164.523438 314.71875 C 164.523438 319.253906 168.234375 322.960938 172.769531 322.960938 L 189.253906 322.960938 L 189.253906 339.449219 C 189.253906 343.984375 192.964844 347.691406 197.496094 347.691406 L 213.984375 347.691406 L 213.984375 364.179688 C 213.984375 368.710938 217.691406 372.421875 222.226562 372.421875 C 226.761719 372.421875 230.46875 368.710938 230.46875 364.179688 L 230.46875 347.691406 L 263.441406 347.691406 L 263.441406 364.179688 C 263.441406 368.710938 267.152344 372.421875 271.683594 372.421875 C 276.21875 372.421875 279.929688 368.710938 279.929688 364.179688 L 279.929688 347.691406 L 312.902344 347.691406 L 312.902344 364.179688 C 312.902344 368.710938 316.609375 372.421875 321.144531 372.421875 C 325.679688 372.421875 329.386719 368.710938 329.386719 364.179688 L 329.386719 347.691406 L 345.875 347.691406 C 350.40625 347.691406 354.117188 343.984375 354.117188 339.449219 L 354.117188 322.960938 L 383.460938 322.960938 L 410.417969 352.554688 C 406.214844 358.078125 403.574219 364.921875 403.574219 372.421875 C 403.574219 390.640625 418.332031 405.394531 436.546875 405.394531 C 454.765625 405.394531 469.519531 390.640625 469.519531 372.421875 C 469.519531 354.203125 454.765625 339.449219 436.546875 339.449219 C 431.847656 339.449219 427.398438 340.4375 423.359375 342.25 L 393.1875 309.195312 C 391.625 307.464844 389.398438 306.476562 387.089844 306.476562 L 354.117188 306.476562 L 354.117188 273.503906 L 437.703125 273.503906 C 441.410156 287.683594 454.1875 298.234375 469.519531 298.234375 C 487.738281 298.234375 502.492188 283.476562 502.492188 265.261719 C 502.492188 247.042969 487.738281 232.289062 469.519531 232.289062 Z M 436.546875 141.613281 C 445.617188 141.613281 453.035156 149.03125 453.035156 158.101562 C 453.035156 167.167969 445.617188 174.585938 436.546875 174.585938 C 427.480469 174.585938 420.0625 167.167969 420.0625 158.101562 C 420.0625 149.03125 427.480469 141.613281 436.546875 141.613281 Z M 453.035156 372.421875 C 453.035156 381.488281 445.617188 388.90625 436.546875 388.90625 C 427.480469 388.90625 420.0625 381.488281 420.0625 372.421875 C 420.0625 363.355469 427.480469 355.933594 436.546875 355.933594 C 445.617188 355.933594 453.035156 363.355469 453.035156 372.421875 Z M 337.628906 331.207031 L 205.742188 331.207031 L 205.742188 199.316406 L 337.628906 199.316406 Z M 469.519531 281.746094 C 460.453125 281.746094 453.035156 274.328125 453.035156 265.261719 C 453.035156 256.191406 460.453125 248.773438 469.519531 248.773438 C 478.589844 248.773438 486.007812 256.191406 486.007812 265.261719 C 486.007812 274.328125 478.589844 281.746094 469.519531 281.746094 Z M 469.519531 281.746094 "/></g></g></svg>