<svg xmlns="http://www.w3.org/2000/svg" xmlns:xlink="http://www.w3.org/1999/xlink" width="720" zoomAndPan="magnify" viewBox="0 0 540 540.000001" height="720" preserveAspectRatio="xMidYMid meet" version="1.2"><defs><clipPath id="fbf0b11e78"><path d="M 217.636719 120.992188 L 287.464844 120.992188 L 287.464844 192.953125 L 217.636719 192.953125 Z M 217.636719 120.992188 "/></clipPath><clipPath id="6bbb0fa232"><path d="M 337.839844 120.992188 L 416.386719 120.992188 L 416.386719 199.539062 L 337.839844 199.539062 Z M 337.839844 120.992188 "/></clipPath><clipPath id="683eaee0ad"><path d="M 377.113281 120.992188 C 355.421875 120.992188 337.839844 138.574219 337.839844 160.265625 C 337.839844 181.957031 355.421875 199.539062 377.113281 199.539062 C 398.804688 199.539062 416.386719 181.957031 416.386719 160.265625 C 416.386719 138.574219 398.804688 120.992188 377.113281 120.992188 Z M 377.113281 120.992188 "/></clipPath><clipPath id="0697633338"><path d="M 333.828125 243.992188 L 420.523438 243.992188 L 420.523438 319.738281 L 333.828125 319.738281 Z M 333.828125 243.992188 "/></clipPath><clipPath id="26052139e5"><path d="M 377.113281 243.992188 L 420.398438 319.738281 L 333.828125 319.738281 Z M 377.113281 243.992188 "/></clipPath><clipPath id="2d1636aa8a"><path d="M 12.816406 13.929688 L 25.074219 13.929688 L 25.074219 142.65625 L 12.816406 142.65625 Z M 12.816406 13.929688 "/></clipPath><clipPath id="9b71f79948"><path d="M 25.015625 18.152344 C 22.921875 57.832031 26.589844 126.777344 23.820312 137.78125 C 23.292969 140.101562 22.84375 141 21.722656 141.75 C 20.675781 142.5 18.503906 142.722656 17.304688 142.199219 C 16.109375 141.75 14.683594 140.101562 14.386719 138.832031 C 14.160156 137.484375 14.683594 135.460938 15.582031 134.488281 C 16.480469 133.515625 18.578125 132.839844 19.851562 133.066406 C 21.125 133.289062 22.84375 134.5625 23.445312 135.761719 C 23.96875 136.957031 23.820312 139.128906 23.144531 140.253906 C 22.472656 141.375 20.523438 142.347656 19.328125 142.574219 C 18.277344 142.722656 17.15625 142.347656 16.40625 141.75 C 15.433594 140.925781 14.835938 140.101562 14.3125 137.78125 C 11.617188 126.851562 13.335938 59.550781 14.535156 38.292969 C 15.132812 28.261719 15.285156 19.5 17.007812 16.207031 C 17.605469 15.007812 18.351562 14.5625 19.25 14.1875 C 20.148438 13.886719 21.421875 13.960938 22.246094 14.1875 C 22.921875 14.410156 23.445312 14.785156 23.894531 15.382812 C 24.417969 16.058594 25.015625 18.152344 25.015625 18.152344 "/></clipPath><clipPath id="0d89723607"><path d="M 17.085938 10.980469 L 405.679688 10.980469 L 405.679688 25.652344 L 17.085938 25.652344 Z M 17.085938 10.980469 "/></clipPath><clipPath id="23c67f39cd"><path d="M 21.273438 13.289062 C 130.871094 14.113281 379.632812 7.824219 400.96875 13.136719 C 403.441406 13.738281 404.113281 14.113281 404.789062 15.160156 C 405.535156 16.207031 405.761719 18.304688 405.238281 19.5 C 404.789062 20.625 403.214844 21.972656 401.941406 22.269531 C 400.746094 22.570312 398.722656 21.972656 397.824219 21.148438 C 396.851562 20.25 396.179688 18.230469 396.402344 17.03125 C 396.628906 15.757812 397.902344 14.113281 399.023438 13.585938 C 400.222656 12.988281 402.242188 13.136719 403.367188 13.8125 C 404.488281 14.410156 405.460938 16.28125 405.613281 17.480469 C 405.761719 18.453125 405.460938 19.578125 404.789062 20.324219 C 404.039062 21.296875 403.441406 21.746094 400.96875 22.347656 C 377.914062 28.109375 40.511719 25.339844 21.046875 21.371094 C 19.328125 21.074219 19.027344 20.921875 18.351562 20.25 C 17.753906 19.652344 17.230469 18.601562 17.15625 17.703125 C 17.082031 16.804688 17.304688 15.609375 17.90625 14.933594 C 18.578125 14.113281 21.273438 13.289062 21.273438 13.289062 "/></clipPath><clipPath id="03907367a3"><path d="M 60.097656 61 L 429.503906 61 L 429.503906 180.332031 L 60.097656 180.332031 Z M 60.097656 61 "/></clipPath><clipPath id="8c56e31566"><path d="M 60.199219 175.738281 C 61.25 126.105469 62.894531 109.484375 64.167969 100.5 C 64.84375 95.5625 65.515625 91.816406 66.265625 89.046875 C 66.714844 87.324219 66.9375 86.425781 67.6875 85.078125 C 68.511719 83.433594 69.632812 81.859375 71.128906 80.140625 C 73.152344 77.742188 76.671875 74.226562 78.917969 72.355469 C 80.339844 71.082031 80.9375 70.480469 82.734375 69.582031 C 85.953125 67.863281 92.390625 65.167969 97.480469 64.117188 C 102.496094 63.070312 104.519531 63.445312 112.902344 63.144531 C 150.785156 61.871094 406.210938 59.925781 424.476562 62.921875 C 426.273438 63.21875 426.648438 63.21875 427.394531 63.894531 C 428.292969 64.71875 429.265625 66.738281 429.265625 67.9375 C 429.265625 68.984375 428.742188 70.03125 428.144531 70.78125 C 427.472656 71.53125 426.496094 72.203125 425.523438 72.355469 C 424.25 72.578125 422.15625 72.054688 421.183594 71.15625 C 420.210938 70.257812 419.609375 68.160156 419.761719 66.886719 C 419.835938 65.914062 420.507812 64.867188 421.183594 64.195312 C 421.855469 63.519531 422.90625 62.921875 423.953125 62.921875 C 425.226562 62.921875 427.246094 63.746094 428.144531 64.566406 C 428.894531 65.316406 429.191406 66.441406 429.265625 67.414062 C 429.34375 68.386719 429.117188 69.582031 428.445312 70.40625 C 427.695312 71.378906 427.023438 71.90625 424.476562 72.503906 C 403.890625 77.59375 165.832031 70.707031 122.261719 72.203125 C 110.207031 72.578125 105.191406 72.503906 99.277344 73.777344 C 95.234375 74.675781 92.617188 75.871094 89.546875 77.445312 C 86.476562 78.941406 83.035156 81.1875 80.9375 82.984375 C 79.515625 84.179688 78.542969 85.230469 77.71875 86.503906 C 76.894531 87.773438 76.371094 88.898438 75.847656 90.542969 C 75.023438 93.015625 74.5 95.785156 73.824219 99.976562 C 72.554688 108.136719 70.832031 123.859375 69.933594 136.285156 C 69.035156 149.234375 69.859375 170.796875 68.585938 176.261719 C 68.210938 177.757812 67.988281 178.28125 67.386719 178.957031 C 66.714844 179.628906 65.589844 180.078125 64.617188 180.152344 C 63.71875 180.230469 62.523438 179.929688 61.773438 179.253906 C 60.949219 178.507812 60.199219 175.738281 60.199219 175.738281 "/></clipPath><clipPath id="96271e95e0"><path d="M 417.753906 63.03125 L 481.730469 63.03125 L 481.730469 302.9375 L 417.753906 302.9375 Z M 417.753906 63.03125 "/></clipPath><clipPath id="6fed7499b7"><path d="M 421.929688 63.070312 C 449.628906 63.667969 452.324219 65.542969 455.46875 67.5625 C 458.613281 69.507812 461.757812 72.128906 464.226562 74.75 C 466.472656 77.070312 468.121094 79.539062 469.765625 82.234375 C 471.339844 84.929688 472.613281 87.476562 473.960938 90.769531 C 475.605469 94.886719 477.476562 100.277344 478.675781 105.144531 C 479.800781 110.007812 480.398438 115.546875 480.847656 120.039062 C 481.222656 123.707031 481.222656 124.832031 481.371094 130.070312 C 481.820312 148.039062 481.746094 233.753906 480.996094 251.046875 C 480.773438 255.765625 480.324219 256.0625 480.171875 260.105469 C 479.800781 268.339844 481.519531 291.996094 480.023438 298.058594 C 479.5 300.15625 478.902344 301.28125 477.925781 302.027344 C 477.105469 302.628906 475.980469 302.925781 475.007812 302.851562 C 474.035156 302.777344 472.910156 302.402344 472.164062 301.730469 C 471.339844 300.832031 470.367188 298.882812 470.515625 297.613281 C 470.664062 296.265625 472.011719 294.542969 473.0625 293.867188 C 473.886719 293.34375 475.082031 293.269531 476.054688 293.417969 C 476.953125 293.570312 478.078125 294.167969 478.675781 294.839844 C 479.351562 295.515625 479.875 296.636719 479.949219 297.613281 C 480.097656 298.507812 479.949219 299.707031 479.351562 300.53125 C 478.601562 301.578125 476.730469 302.703125 475.53125 302.851562 C 474.484375 303 473.359375 302.628906 472.613281 302.027344 C 471.640625 301.28125 471.113281 300.53125 470.515625 298.058594 C 466.921875 283.3125 473.210938 160.613281 471.640625 130.070312 C 471.039062 118.617188 470.742188 113.675781 469.09375 106.492188 C 467.597656 100.050781 464.527344 92.339844 462.730469 88.671875 C 461.832031 86.800781 461.457031 86.203125 460.410156 84.78125 C 458.761719 82.609375 455.917969 79.464844 453.371094 77.292969 C 450.902344 75.199219 448.882812 72.953125 445.214844 71.753906 C 439.300781 69.882812 423.578125 72.652344 419.984375 71.007812 C 418.785156 70.40625 418.335938 69.660156 418.039062 68.761719 C 417.664062 67.9375 417.664062 66.664062 418.039062 65.765625 C 418.335938 64.941406 419.234375 63.96875 419.984375 63.519531 C 420.582031 63.144531 421.929688 63.070312 421.929688 63.070312 "/></clipPath><clipPath id="c2a8555fa8"><path d="M 301.4375 281 L 480.402344 281 L 480.402344 412.652344 L 301.4375 412.652344 Z M 301.4375 281 "/></clipPath><clipPath id="ca47ed6ce1"><path d="M 480.324219 286.007812 C 478.300781 314.90625 479.875 356.078125 479.199219 364.761719 C 479.050781 366.933594 478.902344 367.308594 478.527344 368.953125 C 478.078125 371.199219 477.179688 374.71875 476.355469 376.890625 C 475.679688 378.535156 475.382812 379.359375 474.257812 381.082031 C 472.011719 384.527344 466.472656 391.710938 462.132812 395.378906 C 458.386719 398.597656 453.296875 401.070312 450.304688 402.492188 C 448.582031 403.316406 448.207031 403.539062 446.113281 404.0625 C 440.496094 405.488281 424.699219 407.359375 414.820312 408.554688 C 405.984375 409.679688 400.445312 410.652344 389.589844 411.175781 C 369.902344 412.074219 316.375 413.199219 306.570312 410.726562 C 304.25 410.203125 303.351562 409.605469 302.601562 408.628906 C 301.929688 407.808594 301.628906 406.683594 301.777344 405.710938 C 301.929688 404.4375 303.050781 402.566406 304.097656 401.820312 C 304.921875 401.21875 306.121094 401.070312 307.09375 401.21875 C 307.992188 401.292969 309.113281 401.820312 309.863281 402.492188 C 310.539062 403.164062 311.136719 404.214844 311.285156 405.1875 C 311.4375 406.160156 311.359375 407.359375 310.761719 408.179688 C 310.089844 409.230469 308.367188 410.578125 307.09375 410.726562 C 305.746094 410.875 303.800781 409.902344 302.902344 409.078125 C 302.152344 408.332031 301.777344 407.207031 301.777344 406.234375 C 301.703125 405.261719 301.929688 404.0625 302.601562 403.242188 C 303.351562 402.265625 304.25 401.667969 306.570312 401.144531 C 315.777344 398.898438 364.4375 402.714844 381.507812 402.117188 C 390.414062 401.820312 393.785156 401.445312 401.71875 400.546875 C 413.023438 399.273438 433.234375 397.402344 442.816406 394.632812 C 448.28125 392.984375 451.425781 391.9375 455.167969 389.09375 C 459.585938 385.648438 464.675781 379.285156 467.074219 374.644531 C 468.792969 371.199219 469.019531 369.476562 469.617188 364.761719 C 471.191406 353.007812 469.167969 317.226562 469.992188 302.851562 C 470.441406 295.066406 470.890625 288.253906 471.863281 284.960938 C 472.3125 283.613281 472.613281 282.9375 473.285156 282.339844 C 474.035156 281.742188 475.15625 281.292969 476.128906 281.292969 C 477.027344 281.292969 478.226562 281.664062 478.902344 282.339844 C 479.722656 283.164062 480.324219 286.007812 480.324219 286.007812 "/></clipPath><clipPath id="d36acc60a5"><path d="M 10.117188 170.136719 L 172.632812 170.136719 L 172.632812 221 L 10.117188 221 Z M 10.117188 170.136719 "/></clipPath><clipPath id="7d4366bc50"><path d="M 10.34375 216.835938 C 10.195312 195.5 10.417969 194.601562 11.015625 192.804688 C 11.914062 190.261719 13.5625 186.890625 15.359375 184.195312 C 17.230469 181.5 19.925781 178.582031 22.097656 176.710938 C 23.59375 175.289062 25.015625 174.390625 26.511719 173.566406 C 27.859375 172.816406 28.984375 172.292969 30.707031 171.84375 C 33.25 171.171875 35.421875 171.019531 40.4375 170.722656 C 57.058594 169.824219 131.769531 170.273438 148.613281 171.019531 C 153.777344 171.246094 156.023438 170.871094 158.71875 171.917969 C 160.964844 172.742188 162.460938 173.941406 164.109375 175.886719 C 166.355469 178.65625 168.449219 183.746094 169.796875 188.015625 C 171.144531 192.355469 171.820312 197.523438 172.195312 201.5625 C 172.492188 204.785156 172.644531 208.300781 172.34375 210.472656 C 172.117188 211.746094 171.96875 212.71875 171.296875 213.46875 C 170.695312 214.289062 169.648438 214.964844 168.675781 215.265625 C 167.703125 215.5625 166.429688 215.488281 165.53125 215.113281 C 164.632812 214.738281 163.660156 213.917969 163.136719 213.019531 C 162.613281 212.195312 162.238281 210.996094 162.460938 209.949219 C 162.6875 208.675781 163.808594 206.730469 165.082031 206.054688 C 166.28125 205.457031 168.527344 205.605469 169.722656 206.054688 C 170.695312 206.503906 171.445312 207.476562 171.894531 208.375 C 172.269531 209.273438 172.417969 210.546875 172.195312 211.519531 C 172.042969 212.492188 171.371094 213.617188 170.621094 214.289062 C 169.796875 214.890625 168.675781 215.488281 167.628906 215.414062 C 166.355469 215.414062 164.257812 214.441406 163.433594 213.46875 C 162.6875 212.71875 162.6875 211.96875 162.386719 210.472656 C 161.636719 206.730469 162.085938 195.425781 160.738281 190.261719 C 159.839844 186.816406 158.71875 183.523438 156.996094 182.027344 C 155.722656 180.976562 155.050781 181.128906 152.429688 180.753906 C 139.628906 179.03125 49.046875 178.65625 35.722656 180.453125 C 32.875 180.828125 32.128906 181.050781 30.628906 181.800781 C 29.132812 182.550781 27.9375 183.898438 26.738281 185.09375 C 25.613281 186.21875 24.417969 187.339844 23.519531 188.6875 C 22.546875 190.035156 21.722656 191.683594 20.972656 193.179688 C 20.300781 194.675781 19.550781 195.574219 19.101562 197.671875 C 18.277344 201.789062 19.476562 213.316406 18.800781 216.835938 C 18.503906 218.183594 18.203125 218.933594 17.679688 219.605469 C 17.304688 220.128906 16.707031 220.578125 16.03125 220.730469 C 15.210938 221.027344 13.9375 221.101562 13.113281 220.730469 C 12.214844 220.429688 11.316406 219.53125 10.867188 218.78125 C 10.492188 218.183594 10.34375 216.835938 10.34375 216.835938 "/></clipPath><clipPath id="7c8662c5cf"><path d="M 9 215.371094 L 132.058594 215.371094 L 132.058594 467.042969 L 9 467.042969 Z M 9 215.371094 "/></clipPath><clipPath id="d16e176787"><path d="M 19.101562 219.980469 C 21.046875 360.121094 19.027344 426.746094 19.925781 439.699219 C 20.074219 442.320312 20.074219 442.84375 20.597656 444.339844 C 21.046875 445.988281 21.648438 447.632812 22.84375 449.28125 C 24.492188 451.601562 25.839844 454.671875 30.257812 456.46875 C 42.90625 461.632812 101.148438 457.289062 116.199219 456.542969 C 121.585938 456.316406 124.65625 455.195312 127.128906 455.417969 C 128.472656 455.570312 129.296875 455.71875 130.121094 456.390625 C 131.019531 457.289062 132.066406 459.238281 131.992188 460.585938 C 131.917969 461.933594 130.71875 463.804688 129.671875 464.476562 C 128.847656 465.152344 127.578125 465.300781 126.601562 465.226562 C 125.628906 465.078125 124.507812 464.628906 123.757812 463.878906 C 122.933594 462.980469 122.1875 460.808594 122.335938 459.535156 C 122.410156 458.488281 123.085938 457.441406 123.757812 456.765625 C 124.507812 456.09375 125.554688 455.492188 126.601562 455.492188 C 127.875 455.417969 129.972656 456.242188 130.871094 457.140625 C 131.617188 457.890625 131.992188 459.085938 131.992188 460.0625 C 132.066406 461.035156 131.84375 462.230469 131.167969 463.054688 C 130.421875 464.027344 128.699219 464.851562 127.128906 465.226562 C 125.480469 465.601562 123.308594 464.851562 121.4375 465 C 119.640625 465.152344 119.042969 465.898438 116.199219 466.199219 C 105.566406 467.472656 51.144531 467.023438 37.816406 466.421875 C 33.25 466.199219 31.15625 466.125 28.609375 465.449219 C 26.664062 465 25.390625 464.476562 23.742188 463.429688 C 21.496094 462.082031 18.800781 459.6875 16.855469 457.289062 C 14.761719 454.894531 12.8125 452.199219 11.691406 449.128906 C 10.492188 445.910156 10.34375 443.367188 9.96875 438.351562 C 9.070312 427.195312 9.519531 395.828125 10.042969 383.777344 C 10.269531 377.789062 10.867188 376.214844 11.09375 370.300781 C 11.542969 358.625 11.316406 333.695312 11.09375 318.496094 C 10.941406 306.519531 10.195312 299.035156 10.042969 286.457031 C 9.894531 268.265625 9.296875 227.464844 10.71875 219.980469 C 11.015625 218.40625 11.167969 217.882812 11.765625 217.210938 C 12.363281 216.535156 13.414062 215.863281 14.386719 215.863281 C 15.507812 215.789062 17.304688 216.460938 18.054688 217.210938 C 18.726562 217.882812 19.101562 219.980469 19.101562 219.980469 "/></clipPath><clipPath id="16fc0e7778"><path d="M 163.011719 207.65625 L 196.878906 207.65625 L 196.878906 337.675781 L 163.011719 337.675781 Z M 163.011719 207.65625 "/></clipPath><clipPath id="6f870f2c03"><path d="M 168.300781 207.777344 C 177.210938 209.199219 181.027344 210.996094 183.273438 212.269531 C 184.84375 213.167969 185.742188 213.617188 186.941406 214.890625 C 188.738281 216.761719 190.835938 220.128906 192.105469 222.898438 C 193.378906 225.59375 194.203125 227.765625 194.800781 231.285156 C 195.851562 236.972656 195.625 244.234375 195.851562 253.96875 C 196.148438 271.785156 198.019531 317.300781 195.25 329.277344 C 194.277344 333.320312 193.078125 335.867188 191.507812 336.988281 C 190.609375 337.664062 189.410156 337.585938 188.4375 337.4375 C 187.390625 337.289062 186.34375 336.6875 185.667969 335.941406 C 184.996094 335.191406 184.394531 334.144531 184.320312 333.019531 C 184.320312 331.75 185.21875 329.652344 186.117188 328.753906 C 186.867188 328.078125 188.0625 327.707031 189.039062 327.628906 C 190.011719 327.628906 191.285156 327.855469 192.03125 328.527344 C 193.078125 329.351562 194.203125 331.300781 194.203125 332.648438 C 194.203125 333.992188 193.003906 335.867188 191.957031 336.6875 C 191.132812 337.363281 189.9375 337.585938 188.960938 337.511719 C 187.914062 337.4375 186.792969 336.988281 186.042969 336.316406 C 185.292969 335.640625 184.621094 334.59375 184.394531 333.621094 C 184.246094 332.648438 184.394531 331.375 184.769531 330.476562 C 185.21875 329.578125 187.089844 328.679688 187.015625 328.230469 C 186.941406 327.855469 185.820312 328.304688 185.371094 327.707031 C 182.074219 323.0625 186.867188 256.738281 186.265625 241.691406 C 186.042969 236.226562 186.191406 233.980469 185.292969 230.683594 C 184.546875 227.691406 182.972656 224.472656 181.625 222.527344 C 180.578125 221.101562 179.679688 220.28125 178.40625 219.382812 C 176.984375 218.40625 175.335938 217.585938 173.464844 217.058594 C 171.371094 216.386719 168.152344 216.6875 166.429688 216.011719 C 165.382812 215.5625 164.484375 215.113281 163.957031 214.367188 C 163.359375 213.617188 163.136719 212.34375 163.136719 211.445312 C 163.210938 210.773438 163.507812 210.097656 163.808594 209.574219 C 164.183594 208.976562 164.707031 208.453125 165.304688 208.152344 C 166.128906 207.777344 168.300781 207.777344 168.300781 207.777344 "/></clipPath><clipPath id="ff4dbdd9ce"><path d="M 145.691406 208.449219 L 175.554688 208.449219 L 175.554688 355.964844 L 145.691406 355.964844 Z M 145.691406 208.449219 "/></clipPath><clipPath id="3cc3e4fe97"><path d="M 170.847656 217.136719 C 161.9375 219.832031 159.316406 226.71875 158.269531 229.785156 C 157.746094 231.582031 157.820312 232.257812 157.671875 234.351562 C 157.296875 238.921875 157.371094 250.671875 157.746094 256.136719 C 157.96875 259.582031 158.492188 261.152344 158.71875 264.371094 C 159.019531 269.164062 159.09375 275.75 158.867188 282.191406 C 158.570312 290.050781 157.144531 299.183594 156.773438 308.242188 C 156.398438 318.273438 157.445312 332.121094 156.847656 339.757812 C 156.472656 344.101562 155.125 347.769531 155.125 349.941406 C 155.199219 350.914062 155.800781 351.363281 155.648438 352.109375 C 155.425781 353.082031 154.527344 354.429688 153.628906 355.03125 C 152.730469 355.628906 151.15625 355.929688 150.183594 355.855469 C 149.359375 355.855469 148.613281 355.554688 147.9375 355.03125 C 147.113281 354.429688 146.214844 353.160156 145.917969 352.109375 C 145.691406 351.136719 145.691406 349.863281 146.214844 348.890625 C 146.890625 347.769531 148.6875 346.347656 149.886719 346.046875 C 150.933594 345.746094 152.207031 346.046875 153.027344 346.496094 C 153.925781 346.945312 154.902344 347.769531 155.273438 348.742188 C 155.722656 350.015625 155.800781 352.261719 155.125 353.457031 C 154.375 354.65625 152.503906 355.777344 151.15625 355.929688 C 149.734375 356.003906 147.714844 355.105469 146.890625 353.980469 C 145.992188 352.933594 145.765625 350.6875 146.066406 349.414062 C 146.292969 348.367188 147.113281 347.394531 147.9375 346.871094 C 148.761719 346.269531 149.960938 345.820312 151.007812 345.972656 C 152.28125 346.121094 154.226562 347.320312 155.050781 348.292969 C 155.648438 349.042969 155.722656 350.089844 155.800781 350.914062 C 155.800781 351.734375 155.574219 352.558594 155.199219 353.234375 C 154.824219 353.90625 154.300781 354.582031 153.628906 355.03125 C 152.730469 355.554688 151.308594 356.003906 150.183594 355.855469 C 149.0625 355.777344 147.789062 355.03125 147.039062 354.207031 C 146.292969 353.382812 145.992188 352.335938 145.765625 350.914062 C 145.542969 348.742188 146.589844 346.195312 146.890625 342.304688 C 147.414062 334.519531 146.367188 313.109375 147.039062 306.667969 C 147.265625 304.273438 147.714844 304.050781 148.011719 301.804688 C 148.539062 296.9375 148.910156 285.410156 149.0625 278.820312 C 149.210938 273.804688 149.359375 269.761719 149.136719 265.644531 C 148.988281 262.050781 148.238281 259.507812 148.089844 255.464844 C 147.789062 249.476562 147.640625 238.921875 148.3125 233.304688 C 148.761719 229.785156 149.4375 227.617188 150.410156 224.921875 C 151.308594 222.300781 152.503906 219.605469 154.078125 217.285156 C 155.722656 214.964844 157.96875 212.34375 159.839844 210.921875 C 161.1875 209.875 162.238281 209.273438 163.660156 208.902344 C 165.382812 208.453125 167.628906 208.375 169.421875 208.527344 C 170.921875 208.601562 172.566406 208.75 173.542969 209.425781 C 174.363281 209.949219 175.039062 210.921875 175.335938 211.820312 C 175.5625 212.71875 175.488281 213.917969 175.039062 214.816406 C 174.664062 215.636719 173.617188 216.460938 172.867188 216.835938 C 172.269531 217.136719 170.847656 217.136719 170.847656 217.136719 "/></clipPath><clipPath id="c94965554c"><path d="M 185.144531 305.453125 L 232 305.453125 L 232 359.800781 L 185.144531 359.800781 Z M 185.144531 305.453125 "/></clipPath><clipPath id="dae27d67d1"><path d="M 185.820312 330.925781 C 184.996094 320.21875 185.371094 319.097656 185.894531 317.597656 C 186.492188 315.953125 187.242188 314.007812 188.214844 312.660156 C 188.960938 311.460938 189.859375 310.488281 190.984375 309.589844 C 192.480469 308.542969 194.652344 307.417969 196.375 306.746094 C 197.796875 306.21875 198.769531 305.921875 200.417969 305.769531 C 202.960938 305.472656 207.078125 305.398438 210.222656 306.144531 C 213.21875 306.820312 216.285156 307.941406 218.683594 309.886719 C 221.152344 311.761719 222.875 314.230469 224.597656 317.75 C 227.367188 323.214844 230.4375 333.769531 231.410156 340.882812 C 232.15625 346.644531 232.308594 354.207031 230.960938 357.050781 C 230.359375 358.398438 229.386719 358.996094 228.414062 359.371094 C 227.367188 359.746094 225.871094 359.671875 224.894531 359.371094 C 224.148438 359.148438 223.546875 358.699219 223.023438 358.023438 C 222.425781 357.277344 221.675781 355.929688 221.75 354.804688 C 221.828125 353.53125 222.800781 351.511719 223.921875 350.761719 C 225.046875 350.015625 227.292969 349.941406 228.488281 350.3125 C 229.460938 350.613281 230.359375 351.363281 230.808594 352.261719 C 231.410156 353.457031 231.632812 355.628906 231.109375 356.828125 C 230.511719 358.097656 228.714844 359.296875 227.441406 359.597656 C 226.46875 359.894531 225.269531 359.597656 224.371094 359.148438 C 223.472656 358.625 222.574219 357.875 222.199219 356.828125 C 221.828125 355.703125 221.75 353.457031 222.5 352.261719 C 223.175781 351.136719 225.046875 350.015625 226.394531 349.941406 C 227.742188 349.863281 229.6875 350.914062 230.511719 351.886719 C 231.257812 352.632812 231.484375 353.90625 231.558594 354.804688 C 231.558594 355.628906 231.484375 356.378906 230.960938 357.050781 C 230.285156 358.023438 228.5625 359.523438 227.214844 359.671875 C 225.945312 359.820312 223.921875 358.921875 223.023438 358.023438 C 222.199219 357.277344 222.125 356.300781 221.75 354.804688 C 221.152344 351.660156 221.902344 344.773438 221.152344 339.90625 C 220.328125 335.042969 218.53125 329.800781 217.109375 325.683594 C 215.988281 322.539062 215.3125 319.097656 213.59375 317.375 C 212.246094 316.027344 210.523438 315.726562 208.578125 315.277344 C 206.105469 314.753906 201.914062 314.378906 199.59375 315.054688 C 197.871094 315.578125 196.523438 316.699219 195.476562 317.898438 C 194.503906 319.023438 193.828125 320.21875 193.527344 321.941406 C 193.003906 324.335938 194.652344 329.277344 193.976562 331.300781 C 193.679688 332.421875 193.078125 333.246094 192.179688 333.695312 C 191.207031 334.21875 189.335938 334.441406 188.289062 333.992188 C 187.242188 333.542969 185.820312 330.925781 185.820312 330.925781 "/></clipPath><clipPath id="d0effee78f"><path d="M 221 325.582031 L 267.96875 325.582031 L 267.96875 378.136719 L 221 378.136719 Z M 221 325.582031 "/></clipPath><clipPath id="d54dacd503"><path d="M 221.078125 352.558594 C 222.800781 342.152344 223.175781 341.03125 224.148438 339.382812 C 225.496094 337.0625 228.039062 333.542969 230.511719 331.449219 C 232.832031 329.503906 236.273438 328.003906 238.519531 327.03125 C 240.09375 326.359375 241.214844 326.058594 242.636719 325.910156 C 244.210938 325.683594 245.707031 325.535156 247.429688 326.058594 C 249.824219 326.808594 253.417969 329.277344 255.363281 330.925781 C 256.785156 332.046875 257.386719 332.871094 258.433594 334.292969 C 260.007812 336.464844 261.800781 339.382812 263.148438 342.601562 C 264.871094 346.644531 266.667969 352.109375 267.417969 356.75 C 268.089844 361.09375 268.089844 366.109375 267.566406 369.703125 C 267.191406 372.398438 266.667969 375.167969 265.546875 376.515625 C 264.796875 377.414062 263.824219 377.9375 262.777344 378.011719 C 261.503906 378.085938 259.332031 377.5625 258.433594 376.589844 C 257.460938 375.542969 256.863281 373.445312 257.160156 372.097656 C 257.460938 370.824219 258.882812 369.105469 260.082031 368.578125 C 261.351562 368.128906 263.597656 368.355469 264.722656 369.105469 C 265.84375 369.851562 266.894531 371.800781 266.894531 373.144531 C 266.894531 374.492188 265.84375 376.441406 264.722656 377.1875 C 263.597656 378.011719 261.351562 378.085938 260.15625 377.714844 C 259.183594 377.414062 258.285156 376.589844 257.761719 375.691406 C 257.234375 374.867188 256.9375 373.671875 257.085938 372.621094 C 257.160156 371.648438 258.132812 371.125 258.359375 369.777344 C 258.882812 367.230469 258.285156 361.617188 257.761719 357.949219 C 257.3125 354.730469 256.5625 351.8125 255.589844 348.964844 C 254.617188 346.121094 253.417969 342.902344 251.996094 340.804688 C 250.949219 339.160156 249.75 337.960938 248.402344 336.914062 C 247.203125 335.941406 245.933594 334.816406 244.359375 334.742188 C 242.1875 334.667969 238.371094 336.765625 236.425781 338.113281 C 234.925781 339.085938 234.105469 340.207031 233.128906 341.480469 C 232.234375 342.828125 231.410156 344.25 230.808594 346.046875 C 229.988281 348.441406 229.910156 352.859375 229.164062 354.507812 C 228.863281 355.328125 228.640625 355.777344 228.039062 356.226562 C 227.367188 356.75 226.09375 357.199219 225.269531 357.277344 C 224.597656 357.277344 223.921875 357.125 223.324219 356.75 C 222.574219 356.378906 221.675781 355.328125 221.300781 354.582031 C 221.003906 353.90625 221.078125 352.558594 221.078125 352.558594 "/></clipPath><clipPath id="b1c7c1db7c"><path d="M 257.375 347.171875 L 306.621094 347.171875 L 306.621094 413.894531 L 257.375 413.894531 Z M 257.375 347.171875 "/></clipPath><clipPath id="d03ea3bdca"><path d="M 257.386719 369.554688 C 258.734375 360.195312 258.808594 359.148438 259.707031 357.726562 C 261.054688 355.554688 263.972656 352.183594 266.894531 350.539062 C 270.113281 348.667969 275.503906 347.917969 278.421875 347.46875 C 280.144531 347.246094 280.96875 347.246094 282.6875 347.394531 C 285.234375 347.695312 289.425781 348.066406 292.121094 349.566406 C 294.816406 351.0625 297.210938 354.207031 298.785156 356.378906 C 299.980469 358.097656 300.355469 359.074219 301.179688 361.242188 C 302.75 365.359375 305.074219 372.847656 305.894531 379.359375 C 306.871094 386.695312 306.496094 397.25 305.972656 403.242188 C 305.671875 406.835938 305.894531 410.203125 304.546875 411.925781 C 303.574219 413.121094 301.554688 413.722656 300.28125 413.648438 C 299.234375 413.648438 298.183594 413.046875 297.4375 412.375 C 296.761719 411.699219 296.089844 410.726562 295.9375 409.679688 C 295.863281 408.40625 296.386719 406.234375 297.363281 405.335938 C 298.335938 404.363281 300.507812 403.839844 301.777344 403.988281 C 302.828125 404.140625 303.800781 404.738281 304.472656 405.5625 C 305.222656 406.609375 305.746094 408.78125 305.523438 410.054688 C 305.296875 411.101562 304.546875 412.074219 303.800781 412.671875 C 302.976562 413.273438 301.851562 413.648438 300.804688 413.722656 C 299.832031 413.722656 298.632812 413.347656 297.886719 412.75 C 297.0625 412.148438 296.3125 411.175781 296.089844 410.203125 C 295.789062 408.929688 297.0625 406.984375 296.988281 405.710938 C 296.988281 404.738281 296.464844 404.511719 296.238281 403.242188 C 295.566406 398.972656 296.539062 382.652344 295.714844 375.917969 C 295.191406 371.800781 294.59375 369.179688 293.320312 366.109375 C 292.121094 363.191406 290.175781 359.523438 288.304688 358.023438 C 287.03125 357.050781 285.683594 356.828125 284.335938 356.601562 C 282.914062 356.300781 281.566406 356.453125 280.070312 356.527344 C 278.421875 356.675781 276.550781 356.75 274.902344 357.277344 C 273.332031 357.648438 271.757812 358.398438 270.410156 359.222656 C 269.140625 359.972656 267.714844 360.570312 266.894531 361.992188 C 265.695312 364.089844 266.667969 369.402344 265.546875 371.425781 C 264.871094 372.773438 263.75 373.746094 262.625 374.042969 C 261.503906 374.34375 259.707031 373.894531 258.808594 373.148438 C 257.984375 372.398438 257.386719 369.554688 257.386719 369.554688 "/></clipPath><clipPath id="6ba13277b5"><path d="M 65 318.5625 L 152.664062 318.5625 L 152.664062 466.984375 L 65 466.984375 Z M 65 318.5625 "/></clipPath><clipPath id="e047bdbbd7"><path d="M 146.441406 352.933594 C 121.289062 339.382812 113.203125 336.914062 109.234375 334.96875 C 107.214844 333.917969 106.613281 333.09375 104.820312 332.273438 C 102.421875 331.148438 98.605469 329.953125 96.058594 329.277344 C 94.039062 328.753906 92.691406 328.15625 90.746094 328.304688 C 87.972656 328.605469 83.484375 330.625 81.238281 332.046875 C 79.738281 333.09375 78.839844 334.070312 77.867188 335.417969 C 76.96875 336.765625 76.148438 338.1875 75.621094 339.984375 C 75.023438 342.453125 74.648438 346.71875 75.25 349.042969 C 75.699219 350.761719 76.296875 351.363281 77.644531 353.082031 C 80.636719 356.828125 88.871094 364.613281 94.9375 369.703125 C 100.925781 374.71875 109.386719 379.210938 113.953125 383.253906 C 116.871094 385.871094 118.519531 387.96875 120.539062 390.589844 C 122.558594 393.285156 124.207031 395.53125 125.855469 399.125 C 128.324219 404.363281 131.167969 413.199219 132.292969 419.5625 C 133.265625 424.875 132.964844 428.695312 133.117188 434.53125 C 133.265625 442.542969 134.3125 459.011719 132.816406 463.28125 C 132.367188 464.703125 131.84375 465.300781 130.945312 465.824219 C 129.820312 466.421875 127.652344 466.796875 126.378906 466.273438 C 125.105469 465.824219 123.757812 464.027344 123.382812 462.832031 C 123.085938 461.78125 123.308594 460.585938 123.757812 459.6875 C 124.132812 458.789062 124.957031 457.816406 125.929688 457.441406 C 127.050781 456.917969 129.296875 456.765625 130.496094 457.441406 C 131.695312 458.039062 132.816406 459.984375 133.042969 461.183594 C 133.265625 462.230469 133.042969 463.429688 132.367188 464.253906 C 131.695312 465.300781 129.746094 466.5 128.472656 466.648438 C 127.425781 466.796875 126.304688 466.347656 125.480469 465.824219 C 124.65625 465.226562 124.058594 464.777344 123.535156 463.28125 C 121.664062 457.890625 123.984375 431.761719 122.558594 421.507812 C 121.738281 415.367188 120.765625 411.773438 118.890625 407.058594 C 116.871094 402.042969 114.925781 396.800781 110.808594 392.3125 C 105.640625 386.621094 93.886719 381.304688 88.574219 377.265625 C 85.429688 374.867188 83.933594 373.445312 81.386719 370.976562 C 78.316406 367.980469 74.199219 363.9375 71.578125 360.570312 C 69.335938 357.726562 67.164062 355.253906 66.113281 352.109375 C 65.066406 349.042969 65.140625 345.148438 65.441406 341.929688 C 65.742188 338.933594 66.265625 335.941406 67.613281 333.320312 C 69.035156 330.550781 71.804688 327.628906 73.75 325.835938 C 75.171875 324.488281 76.296875 323.511719 77.867188 322.839844 C 79.367188 322.164062 81.386719 322.390625 82.882812 321.714844 C 84.230469 321.117188 84.980469 319.621094 86.402344 319.171875 C 87.898438 318.574219 89.695312 318.574219 91.71875 318.648438 C 94.335938 318.796875 96.957031 319.246094 101 320.519531 C 109.234375 323.140625 131.695312 333.621094 137.082031 337.136719 C 138.804688 338.335938 138.804688 338.933594 140.226562 339.984375 C 142.847656 341.855469 150.109375 344.625 151.757812 346.71875 C 152.503906 347.695312 152.578125 348.667969 152.503906 349.566406 C 152.429688 350.539062 151.832031 351.660156 151.15625 352.261719 C 150.484375 352.859375 149.285156 353.308594 148.386719 353.382812 C 147.714844 353.457031 146.441406 352.933594 146.441406 352.933594 "/></clipPath><clipPath id="27bd18265c"><path d="M 125.042969 397 L 306 397 L 306 526 L 125.042969 526 Z M 125.042969 397 "/></clipPath><clipPath id="2fdd1a0773"><path d="M 305.746094 401.371094 C 305.296875 452.425781 304.546875 454.96875 302.675781 460.507812 C 299.90625 468.96875 293.09375 484.765625 289.203125 491.425781 C 287.179688 495.019531 285.90625 496.519531 283.585938 499.0625 C 280.742188 502.207031 276.550781 506.101562 273.105469 508.644531 C 270.261719 510.816406 267.941406 512.164062 264.796875 513.960938 C 260.90625 516.132812 255.441406 518.902344 251.472656 520.625 C 248.253906 521.972656 245.78125 522.871094 242.636719 523.691406 C 239.34375 524.515625 235.824219 525.113281 232.082031 525.488281 C 227.664062 525.863281 223.097656 525.714844 217.785156 525.789062 C 211.347656 525.863281 201.765625 526.164062 195.925781 525.863281 C 192.105469 525.640625 189.488281 525.265625 186.417969 524.816406 C 183.421875 524.367188 180.953125 523.917969 177.808594 523.09375 C 174.066406 522.121094 169.722656 520.699219 165.304688 519.050781 C 160.140625 517.03125 153.253906 514.484375 148.761719 511.640625 C 145.242188 509.46875 142.25 506.625 140.152344 504.230469 C 138.582031 502.582031 137.90625 501.457031 136.710938 499.363281 C 134.761719 496.144531 132.144531 490.902344 130.421875 486.5625 C 128.773438 482.292969 127.351562 478.101562 126.527344 473.609375 C 125.703125 468.894531 124.730469 462.230469 125.40625 458.9375 C 125.78125 457.066406 126.601562 455.644531 127.578125 454.894531 C 128.398438 454.222656 129.597656 453.996094 130.570312 453.996094 C 131.542969 454.070312 132.742188 454.445312 133.492188 455.195312 C 134.386719 456.09375 135.363281 458.113281 135.210938 459.460938 C 135.0625 460.808594 133.789062 462.605469 132.59375 463.28125 C 131.394531 463.878906 129.222656 463.730469 128.027344 463.28125 C 127.050781 462.832031 126.304688 461.855469 125.855469 460.957031 C 125.480469 460.0625 125.332031 458.863281 125.554688 457.890625 C 125.78125 456.917969 126.378906 455.792969 127.128906 455.195312 C 127.875 454.519531 129 453.996094 130.046875 453.996094 C 131.320312 454.070312 133.339844 454.96875 134.238281 455.941406 C 134.914062 456.765625 134.988281 457.515625 135.210938 458.9375 C 135.8125 461.855469 134.835938 468.144531 135.886719 473.085938 C 137.160156 478.699219 140.828125 486.113281 142.996094 490.753906 C 144.570312 493.898438 145.84375 496.59375 147.414062 498.539062 C 148.539062 499.960938 149.511719 500.636719 151.007812 501.683594 C 153.105469 503.105469 156.25 504.601562 158.941406 505.949219 C 161.789062 507.296875 164.632812 508.644531 167.777344 509.84375 C 171.21875 511.042969 174.589844 512.089844 178.707031 513.0625 C 183.722656 514.261719 189.1875 515.609375 195.925781 516.207031 C 205.28125 516.957031 221.675781 516.429688 229.6875 515.832031 C 234.027344 515.457031 236.574219 515.160156 239.792969 514.410156 C 242.789062 513.660156 245.183594 512.835938 248.328125 511.566406 C 252.445312 509.84375 258.210938 506.921875 262.101562 504.601562 C 265.171875 502.730469 267.34375 501.308594 270.039062 499.136719 C 273.179688 496.519531 276.625 494.121094 279.621094 489.707031 C 284.410156 482.667969 289.875 467.320312 292.796875 459.164062 C 294.59375 453.996094 295.640625 451.902344 296.464844 446.136719 C 298.035156 435.582031 295.566406 406.085938 297.363281 400.394531 C 297.8125 398.898438 298.335938 398.449219 299.082031 397.925781 C 299.832031 397.402344 301.03125 397.101562 302.003906 397.175781 C 302.902344 397.328125 304.023438 397.851562 304.625 398.597656 C 305.296875 399.273438 305.746094 401.371094 305.746094 401.371094 "/></clipPath><clipPath id="bdbe7c08c2"><path d="M 517.085938 75.640625 L 529.664062 75.640625 L 529.664062 455.597656 L 517.085938 455.597656 Z M 517.085938 75.640625 "/></clipPath><clipPath id="c06d27354f"><path d="M 526.136719 79.914062 C 527.636719 133.664062 528.683594 136.210938 529.132812 142.722656 C 529.804688 153.128906 529.507812 168.25 529.582031 183.820312 C 529.582031 204.035156 529.730469 232.40625 529.207031 253.890625 C 528.757812 272.082031 527.035156 287.65625 527.035156 304.347656 C 526.960938 320.59375 528.609375 334.070312 528.984375 352.558594 C 529.433594 377.414062 529.882812 424.351562 528.757812 440.148438 C 528.308594 446.0625 528.085938 449.878906 527.035156 452.273438 C 526.511719 453.546875 525.914062 454.222656 525.089844 454.746094 C 524.265625 455.269531 523.144531 455.644531 522.09375 455.492188 C 520.898438 455.34375 518.953125 454.144531 518.277344 453.097656 C 517.679688 452.273438 517.527344 451.078125 517.679688 450.105469 C 517.753906 449.128906 518.203125 448.007812 519.027344 447.335938 C 519.925781 446.511719 522.09375 445.835938 523.292969 445.910156 C 524.339844 446.0625 525.390625 446.734375 525.988281 447.410156 C 526.664062 448.15625 527.261719 449.207031 527.261719 450.253906 C 527.261719 451.527344 526.585938 453.546875 525.539062 454.445312 C 524.492188 455.269531 522.320312 455.570312 521.046875 455.34375 C 520.074219 455.121094 519.101562 454.371094 518.578125 453.546875 C 517.976562 452.800781 517.753906 451.902344 517.605469 450.628906 C 517.378906 448.082031 518.726562 444.714844 519.175781 439.398438 C 520.148438 426.296875 519.851562 388.492188 519.925781 371.273438 C 519.925781 360.792969 520.148438 353.308594 519.773438 345.898438 C 519.550781 340.058594 518.726562 336.238281 518.425781 330.402344 C 518.054688 322.839844 517.753906 314.378906 517.902344 304.273438 C 518.128906 290.199219 520.222656 273.957031 520.671875 253.890625 C 521.347656 224.097656 521.121094 163.160156 519.773438 142.871094 C 519.25 135.164062 518.203125 132.542969 517.753906 127.003906 C 517.304688 121.011719 517.378906 115.023438 517.378906 107.988281 C 517.378906 99.304688 516.480469 83.132812 517.828125 78.867188 C 518.277344 77.519531 518.800781 76.921875 519.550781 76.394531 C 520.300781 75.871094 521.570312 75.574219 522.46875 75.722656 C 523.367188 75.796875 524.492188 76.394531 525.089844 77.070312 C 525.765625 77.742188 526.136719 79.914062 526.136719 79.914062 "/></clipPath><clipPath id="32fc1177dc"><path d="M 343.042969 443.386719 L 530.070312 443.386719 L 530.070312 455.410156 L 343.042969 455.410156 Z M 343.042969 443.386719 "/></clipPath><clipPath id="7e044d4eeb"><path d="M 347.96875 446.0625 C 362.191406 446.808594 367.207031 445.460938 375.515625 444.9375 C 392.359375 443.964844 432.261719 443.140625 452.625 443.515625 C 465.875 443.742188 473.886719 444.9375 485.488281 445.386719 C 498.441406 445.910156 521.644531 444.714844 526.8125 446.210938 C 528.085938 446.511719 528.535156 446.808594 529.058594 447.558594 C 529.730469 448.382812 530.105469 450.253906 529.882812 451.300781 C 529.730469 452.125 529.132812 452.949219 528.457031 453.472656 C 527.785156 453.996094 526.8125 454.296875 525.988281 454.296875 C 525.089844 454.296875 524.117188 454.070312 523.441406 453.472656 C 522.695312 452.800781 521.796875 451.152344 521.871094 449.953125 C 521.871094 448.832031 522.917969 447.335938 523.816406 446.660156 C 524.492188 446.136719 525.539062 445.988281 526.363281 446.136719 C 527.1875 446.210938 528.160156 446.511719 528.757812 447.183594 C 529.507812 448.007812 530.105469 449.804688 530.03125 450.851562 C 529.957031 451.75 529.355469 452.574219 528.757812 453.171875 C 528.160156 453.773438 527.785156 453.996094 526.4375 454.296875 C 520.75 455.417969 496.941406 452.574219 480.097656 452.125 C 459.660156 451.601562 433.757812 451.003906 412.347656 451.675781 C 392.886719 452.199219 367.957031 455.570312 356.800781 455.34375 C 352.085938 455.269531 348.792969 455.121094 346.546875 454.371094 C 345.347656 453.996094 344.597656 453.472656 344 452.875 C 343.550781 452.351562 343.25 451.75 343.101562 451.003906 C 343.027344 450.179688 343.175781 448.90625 343.625 448.082031 C 344.074219 447.257812 345.125 446.511719 345.945312 446.210938 C 346.621094 445.910156 347.96875 446.0625 347.96875 446.0625 "/></clipPath><clipPath id="86672b10b8"><path d="M 210 118.527344 L 222.582031 118.527344 L 222.582031 199.910156 L 210 199.910156 Z M 210 118.527344 "/></clipPath><clipPath id="d09b423882"><path d="M 218.757812 122.660156 C 222.574219 178.507812 222.949219 190.710938 222.277344 195.050781 C 222.050781 196.546875 221.976562 197.222656 221.300781 197.972656 C 220.480469 198.945312 218.457031 199.84375 217.183594 199.84375 C 216.136719 199.917969 215.089844 199.46875 214.339844 198.71875 C 213.441406 197.820312 212.542969 195.875 212.695312 194.527344 C 212.84375 193.253906 214.042969 191.457031 215.238281 190.785156 C 216.363281 190.183594 218.53125 190.183594 219.730469 190.785156 C 220.851562 191.457031 222.125 193.253906 222.277344 194.527344 C 222.425781 195.875 221.601562 197.894531 220.554688 198.71875 C 219.582031 199.617188 217.410156 199.917969 216.210938 199.691406 C 215.164062 199.542969 214.191406 198.71875 213.667969 197.972656 C 213.066406 197.222656 212.917969 196.625 212.617188 195.050781 C 211.796875 189.886719 212.917969 171.394531 212.46875 160.242188 C 212.019531 149.761719 210.371094 137.035156 210.148438 130.070312 C 210.074219 126.402344 209.773438 123.558594 210.371094 121.613281 C 210.746094 120.488281 211.269531 119.664062 212.09375 119.140625 C 213.066406 118.617188 214.9375 118.394531 215.988281 118.691406 C 216.960938 118.992188 217.785156 119.964844 218.234375 120.714844 C 218.609375 121.3125 218.757812 122.660156 218.757812 122.660156 "/></clipPath><clipPath id="c7a527d8bf"><path d="M 209.382812 115.15625 L 292.269531 115.15625 L 292.269531 126.128906 L 209.382812 126.128906 Z M 209.382812 115.15625 "/></clipPath><clipPath id="716d2c5683"><path d="M 213.59375 115.175781 C 289.726562 116.148438 290.625 116.671875 291.371094 117.644531 C 291.972656 118.46875 292.347656 119.515625 292.195312 120.5625 C 292.046875 121.761719 290.921875 123.632812 289.949219 124.308594 C 289.128906 124.90625 288.003906 125.128906 286.957031 124.980469 C 285.757812 124.757812 284.035156 123.484375 283.363281 122.511719 C 282.839844 121.613281 282.613281 120.488281 282.839844 119.515625 C 283.136719 118.320312 284.484375 116.597656 285.535156 115.996094 C 286.433594 115.546875 287.554688 115.472656 288.527344 115.699219 C 289.425781 115.921875 290.472656 116.523438 291.074219 117.269531 C 291.671875 117.945312 292.121094 119.066406 292.195312 120.039062 C 292.195312 121.011719 291.972656 122.136719 291.371094 122.886719 C 290.625 123.859375 289.726562 124.457031 287.480469 124.980469 C 278.347656 127.152344 220.179688 125.953125 212.617188 123.484375 C 211.046875 123.035156 210.671875 122.585938 210.148438 121.761719 C 209.625 121.011719 209.324219 119.816406 209.398438 118.917969 C 209.550781 117.945312 210.074219 116.820312 210.820312 116.222656 C 211.496094 115.625 213.59375 115.175781 213.59375 115.175781 "/></clipPath><clipPath id="0a4f79f007"><path d="M 282.832031 115.164062 L 296.160156 115.164062 L 296.160156 201.523438 L 282.832031 201.523438 Z M 282.832031 115.164062 "/></clipPath><clipPath id="1b2eb2c441"><path d="M 291.371094 118.992188 C 292.796875 134.414062 292.347656 148.636719 293.019531 156.871094 C 293.46875 162.9375 294.742188 166.753906 295.191406 172.519531 C 295.789062 179.628906 296.6875 191.90625 295.640625 196.546875 C 295.117188 198.496094 294.59375 199.765625 293.542969 200.515625 C 292.421875 201.339844 290.25 201.5625 288.976562 201.039062 C 287.78125 200.589844 286.355469 198.945312 286.058594 197.597656 C 285.757812 196.324219 286.28125 194.226562 287.179688 193.253906 C 288.152344 192.28125 290.175781 191.53125 291.523438 191.757812 C 292.871094 191.980469 294.59375 193.253906 295.191406 194.453125 C 295.714844 195.726562 295.640625 197.894531 294.964844 199.019531 C 294.292969 200.214844 292.269531 201.191406 291.074219 201.414062 C 290.027344 201.5625 288.902344 201.265625 288.078125 200.589844 C 287.105469 199.84375 286.433594 198.644531 285.90625 196.625 C 284.558594 191.308594 286.058594 174.988281 285.457031 166.753906 C 285.007812 160.839844 283.8125 157.246094 283.4375 151.632812 C 283.0625 144.667969 283.960938 134.1875 283.738281 128.125 C 283.664062 124.308594 282.539062 120.9375 282.988281 118.769531 C 283.289062 117.644531 283.738281 116.746094 284.484375 116.148438 C 285.160156 115.546875 286.355469 115.175781 287.253906 115.175781 C 288.230469 115.175781 289.351562 115.699219 290.101562 116.296875 C 290.773438 116.894531 291.371094 118.992188 291.371094 118.992188 "/></clipPath><clipPath id="15b210b74d"><path d="M 215.351562 188.867188 L 292.1875 188.867188 L 292.1875 199.804688 L 215.351562 199.804688 Z M 215.351562 188.867188 "/></clipPath><clipPath id="3bf35008ad"><path d="M 219.957031 188.914062 C 277.597656 189.285156 284.1875 189.511719 287.554688 190.183594 C 288.902344 190.410156 289.652344 190.558594 290.398438 191.160156 C 291.148438 191.683594 291.898438 192.65625 292.121094 193.628906 C 292.347656 194.828125 291.972656 196.996094 291.148438 197.972656 C 290.324219 199.019531 288.304688 199.765625 287.03125 199.617188 C 285.683594 199.46875 283.960938 198.269531 283.289062 197.148438 C 282.6875 195.949219 282.6875 193.855469 283.289062 192.65625 C 283.960938 191.53125 285.683594 190.335938 287.03125 190.183594 C 288.304688 190.035156 290.324219 190.859375 291.148438 191.832031 C 291.972656 192.804688 292.347656 194.976562 292.121094 196.175781 C 291.898438 197.222656 291.148438 198.121094 290.398438 198.71875 C 289.652344 199.320312 288.902344 199.46875 287.554688 199.691406 C 283.960938 200.140625 276.101562 198.792969 268.242188 198.496094 C 256.1875 197.972656 229.761719 198.421875 222.199219 197.597656 C 219.730469 197.371094 218.457031 197.445312 217.261719 196.699219 C 216.363281 196.175781 215.6875 195.277344 215.464844 194.300781 C 215.238281 193.179688 215.539062 191.308594 216.285156 190.410156 C 217.035156 189.511719 219.957031 188.914062 219.957031 188.914062 "/></clipPath><clipPath id="2257f81bb3"><path d="M 331.007812 116 L 419.34375 116 L 419.34375 202.148438 L 331.007812 202.148438 Z M 331.007812 116 "/></clipPath><clipPath id="b4b45e2cd8"><path d="M 332.171875 157.394531 C 333.070312 147.363281 333.820312 144.144531 335.015625 141.449219 C 336.140625 138.679688 337.9375 136.0625 339.734375 133.664062 C 341.605469 131.195312 343.699219 128.800781 346.171875 126.851562 C 348.714844 124.90625 351.335938 123.558594 354.78125 122.136719 C 359.421875 120.113281 366.160156 117.945312 372 116.972656 C 377.914062 116.074219 385.097656 115.921875 389.964844 116.445312 C 393.484375 116.746094 396.105469 117.269531 398.800781 118.394531 C 401.492188 119.589844 404.265625 121.761719 406.136719 123.410156 C 407.40625 124.605469 408.15625 125.355469 409.128906 126.851562 C 410.703125 129.023438 412.5 132.542969 413.847656 135.535156 C 415.117188 138.382812 416.167969 141.375 416.992188 144.296875 C 417.738281 147.140625 418.335938 149.609375 418.710938 152.753906 C 419.160156 156.722656 419.234375 162.9375 419.160156 166.230469 C 419.160156 168.175781 419.234375 169.074219 418.863281 170.796875 C 418.335938 173.191406 416.765625 176.933594 415.566406 179.332031 C 414.667969 181.203125 413.921875 182.324219 412.648438 184.046875 C 411 186.292969 408.304688 189.285156 405.984375 191.457031 C 403.890625 193.554688 401.71875 195.351562 399.25 196.921875 C 396.703125 198.421875 393.257812 199.917969 390.863281 200.664062 C 389.214844 201.191406 388.242188 201.414062 386.523438 201.640625 C 384.050781 201.9375 380.683594 202.238281 377.3125 201.9375 C 373.269531 201.5625 368.253906 200.441406 363.914062 199.09375 C 359.421875 197.746094 354.554688 195.875 350.886719 193.855469 C 347.742188 192.207031 344.898438 190.035156 342.878906 188.164062 C 341.378906 186.890625 340.558594 185.917969 339.507812 184.269531 C 338.160156 182.25 336.964844 179.628906 335.914062 176.5625 C 334.492188 172.59375 332.996094 166.605469 332.246094 162.1875 C 331.648438 158.519531 331.574219 155.449219 331.5 151.929688 C 331.421875 148.261719 331.050781 142.871094 331.949219 140.550781 C 332.398438 139.355469 332.996094 138.679688 333.820312 138.15625 C 334.644531 137.632812 335.839844 137.257812 336.886719 137.40625 C 338.085938 137.558594 340.03125 138.679688 340.707031 139.804688 C 341.378906 141 341.304688 143.246094 340.855469 144.371094 C 340.480469 145.34375 339.507812 146.167969 338.683594 146.617188 C 337.785156 147.066406 336.589844 147.214844 335.617188 146.992188 C 334.644531 146.839844 333.519531 146.242188 332.847656 145.492188 C 332.246094 144.746094 331.648438 143.695312 331.648438 142.648438 C 331.648438 141.375 332.398438 139.28125 333.445312 138.457031 C 334.492188 137.632812 336.589844 137.183594 337.863281 137.558594 C 339.210938 138.007812 340.40625 139.054688 341.15625 140.777344 C 342.652344 144.296875 340.855469 153.429688 341.753906 159.492188 C 342.652344 165.480469 344.675781 173.566406 346.394531 177.007812 C 347.292969 178.730469 348.191406 179.40625 349.164062 180.453125 C 350.140625 181.5 351.1875 182.472656 352.386719 183.371094 C 353.734375 184.269531 355.15625 184.945312 357.027344 185.84375 C 359.722656 187.042969 363.765625 188.761719 367.058594 189.734375 C 370.050781 190.710938 372.898438 191.457031 375.816406 191.832031 C 378.8125 192.207031 381.957031 192.429688 384.949219 191.90625 C 388.019531 191.382812 391.3125 190.109375 394.007812 188.539062 C 396.554688 187.042969 398.800781 184.945312 400.894531 182.773438 C 403.066406 180.378906 405.535156 177.085938 406.808594 174.839844 C 407.632812 173.339844 407.933594 172.292969 408.304688 170.945312 C 408.753906 169.449219 409.128906 168.25 409.28125 166.230469 C 409.503906 162.9375 409.355469 157.320312 408.605469 152.90625 C 407.933594 148.5625 406.433594 143.847656 405.011719 140.179688 C 403.964844 137.257812 403.140625 134.636719 401.417969 132.542969 C 399.699219 130.445312 396.925781 128.425781 394.757812 127.375 C 393.035156 126.554688 391.761719 126.402344 389.664062 126.179688 C 386.222656 125.804688 380.234375 125.65625 376.117188 126.105469 C 372.597656 126.554688 369.304688 128.199219 366.535156 128.5 C 364.585938 128.722656 362.714844 127.824219 361.292969 128.351562 C 359.945312 128.875 359.273438 130.445312 358.074219 131.195312 C 356.800781 132.019531 355.15625 132.242188 353.808594 132.992188 C 352.460938 133.738281 351.113281 134.789062 349.988281 135.761719 C 349.015625 136.808594 348.34375 137.707031 347.292969 139.054688 C 345.871094 141 343.550781 144.070312 342.503906 146.242188 C 341.679688 147.964844 341.457031 149.160156 341.082031 150.957031 C 340.632812 153.203125 340.855469 157.023438 340.332031 158.667969 C 340.109375 159.492188 339.808594 159.941406 339.359375 160.390625 C 338.910156 160.914062 338.386719 161.289062 337.710938 161.511719 C 336.886719 161.738281 335.542969 161.664062 334.71875 161.363281 C 334.042969 161.140625 333.519531 160.765625 333.070312 160.164062 C 332.621094 159.492188 332.171875 157.394531 332.171875 157.394531 "/></clipPath><clipPath id="59e8afbd7e"><path d="M 323.609375 240.238281 L 376.59375 240.238281 L 376.59375 322.914062 L 323.609375 322.914062 Z M 323.609375 240.238281 "/></clipPath><clipPath id="450a277b13"><path d="M 375.890625 247.003906 C 353.65625 287.355469 337.335938 315.652344 332.621094 320.742188 C 331.5 321.941406 331.050781 322.316406 330.078125 322.613281 C 329.179688 322.914062 327.90625 322.988281 327.007812 322.539062 C 325.808594 322.015625 324.3125 320.371094 323.863281 319.171875 C 323.5625 318.125 323.714844 316.925781 324.085938 316.027344 C 324.460938 315.128906 325.210938 314.15625 326.183594 313.707031 C 327.304688 313.109375 329.550781 312.957031 330.75 313.480469 C 331.949219 314.082031 333.144531 315.953125 333.445312 317.226562 C 333.667969 318.199219 333.371094 319.394531 332.921875 320.292969 C 332.398438 321.117188 331.574219 322.015625 330.601562 322.390625 C 329.402344 322.839844 327.15625 322.613281 326.035156 322.089844 C 325.136719 321.566406 324.386719 320.59375 324.085938 319.621094 C 323.714844 318.722656 323.5625 318.046875 323.9375 316.550781 C 325.285156 311.3125 337.710938 293.042969 343.25 284.359375 C 347.144531 278.296875 349.914062 274.929688 353.433594 269.089844 C 357.851562 261.902344 364.363281 248.800781 367.433594 244.386719 C 368.703125 242.589844 369.304688 241.464844 370.425781 240.867188 C 371.324219 240.417969 372.449219 240.191406 373.347656 240.492188 C 374.46875 240.792969 375.890625 241.988281 376.339844 243.113281 C 376.789062 244.160156 375.890625 247.003906 375.890625 247.003906 "/></clipPath><clipPath id="80685c5c42"><path d="M 325.832031 312.367188 L 426.019531 312.367188 L 426.019531 324.195312 L 325.832031 324.195312 Z M 325.832031 312.367188 "/></clipPath><clipPath id="c90c027741"><path d="M 330 314.304688 C 404.9375 312.660156 416.316406 311.683594 421.257812 312.957031 C 423.277344 313.480469 424.476562 314.082031 425.226562 315.128906 C 425.898438 316.25 426.125 318.421875 425.597656 319.621094 C 425.148438 320.820312 423.429688 322.164062 422.15625 322.464844 C 420.882812 322.691406 418.785156 322.089844 417.886719 321.191406 C 416.914062 320.292969 416.242188 318.199219 416.542969 316.925781 C 416.765625 315.652344 418.039062 313.929688 419.234375 313.40625 C 420.507812 312.882812 422.605469 313.03125 423.726562 313.707031 C 424.851562 314.378906 425.824219 316.328125 425.972656 317.597656 C 426.125 318.574219 425.75 319.695312 425.148438 320.519531 C 424.328125 321.492188 423.429688 322.015625 421.109375 322.539062 C 410.703125 325.085938 339.285156 324.261719 330.226562 322.765625 C 328.578125 322.464844 328.054688 322.390625 327.382812 321.714844 C 326.558594 320.96875 325.882812 319.246094 325.882812 318.125 C 325.957031 317.148438 326.558594 316.027344 327.230469 315.429688 C 327.90625 314.753906 330 314.304688 330 314.304688 "/></clipPath><clipPath id="e3a3efd527"><path d="M 370.480469 241.070312 L 426.519531 241.070312 L 426.519531 324.160156 L 370.480469 324.160156 Z M 370.480469 241.070312 "/></clipPath><clipPath id="cc0f185644"><path d="M 378.4375 243.261719 C 384.199219 251.570312 386.671875 253.441406 389.140625 256.289062 C 392.511719 260.179688 396.328125 264.222656 400.519531 270.660156 C 407.707031 281.515625 423.652344 310.785156 425.824219 317.148438 C 426.347656 318.722656 426.574219 319.171875 426.347656 320.144531 C 426.046875 321.34375 424.851562 323.140625 423.652344 323.738281 C 422.457031 324.261719 420.285156 324.039062 419.234375 323.4375 C 418.335938 322.988281 417.589844 322.164062 417.289062 321.191406 C 416.914062 319.996094 417.140625 317.824219 417.738281 316.777344 C 418.261719 315.878906 419.234375 315.203125 420.132812 314.90625 C 421.03125 314.605469 422.230469 314.53125 423.128906 314.90625 C 424.328125 315.429688 425.898438 316.851562 426.199219 318.125 C 426.574219 319.394531 426.125 321.492188 425.300781 322.464844 C 424.402344 323.4375 422.378906 324.1875 421.183594 324.113281 C 420.132812 324.113281 419.535156 323.886719 418.414062 322.839844 C 413.769531 318.496094 399.472656 286.90625 394.007812 277.847656 C 391.539062 273.804688 390.640625 272.53125 388.242188 269.386719 C 384.800781 264.898438 377.6875 257.484375 374.992188 253.890625 C 373.71875 252.09375 373.121094 251.121094 372.371094 249.699219 C 371.625 248.351562 370.578125 246.78125 370.578125 245.507812 C 370.5 244.535156 370.875 243.410156 371.472656 242.664062 C 372.222656 241.839844 373.945312 241.089844 375.144531 241.164062 C 376.265625 241.242188 378.4375 243.261719 378.4375 243.261719 "/></clipPath></defs><g id="fe2340e202"><g clip-rule="nonzero" clip-path="url(#fbf0b11e78)"><path style=" stroke:none;fill-rule:nonzero;fill:#ff7557;fill-opacity:1;" d="M 217.636719 120.992188 L 287.464844 120.992188 L 287.464844 192.996094 L 217.636719 192.996094 Z M 217.636719 120.992188 "/></g><g clip-rule="nonzero" clip-path="url(#6bbb0fa232)"><g clip-rule="nonzero" clip-path="url(#683eaee0ad)"><path style=" stroke:none;fill-rule:nonzero;fill:#ff7557;fill-opacity:1;" d="M 337.839844 120.992188 L 416.386719 120.992188 L 416.386719 199.539062 L 337.839844 199.539062 Z M 337.839844 120.992188 "/></g></g><g clip-rule="nonzero" clip-path="url(#0697633338)"><g clip-rule="nonzero" clip-path="url(#26052139e5)"><path style=" stroke:none;fill-rule:nonzero;fill:#ff7557;fill-opacity:1;" d="M 333.828125 243.992188 L 420.523438 243.992188 L 420.523438 319.738281 L 333.828125 319.738281 Z M 333.828125 243.992188 "/></g></g><g clip-rule="nonzero" clip-path="url(#2d1636aa8a)"><g clip-rule="nonzero" clip-path="url(#9b71f79948)"><path style=" stroke:none;fill-rule:nonzero;fill:#1e1e1e;fill-opacity:1;" d="M 11.316406 11.191406 L 28.011719 11.191406 L 28.011719 145.59375 L 11.316406 145.59375 Z M 11.316406 11.191406 "/></g></g><g clip-rule="nonzero" clip-path="url(#0d89723607)"><g clip-rule="nonzero" clip-path="url(#23c67f39cd)"><path style=" stroke:none;fill-rule:nonzero;fill:#1e1e1e;fill-opacity:1;" d="M 14.160156 10.144531 L 408.660156 10.144531 L 408.660156 25.414062 L 14.160156 25.414062 Z M 14.160156 10.144531 "/></g></g><g clip-rule="nonzero" clip-path="url(#03907367a3)"><g clip-rule="nonzero" clip-path="url(#8c56e31566)"><path style=" stroke:none;fill-rule:nonzero;fill:#1e1e1e;fill-opacity:1;" d="M 57.207031 59.925781 L 432.394531 59.925781 L 432.394531 183.222656 L 57.207031 183.222656 Z M 57.207031 59.925781 "/></g></g><g clip-rule="nonzero" clip-path="url(#96271e95e0)"><g clip-rule="nonzero" clip-path="url(#6fed7499b7)"><path style=" stroke:none;fill-rule:nonzero;fill:#1e1e1e;fill-opacity:1;" d="M 415.042969 59.777344 L 484.441406 59.777344 L 484.441406 305.917969 L 415.042969 305.917969 Z M 415.042969 59.777344 "/></g></g><g clip-rule="nonzero" clip-path="url(#c2a8555fa8)"><g clip-rule="nonzero" clip-path="url(#ca47ed6ce1)"><path style=" stroke:none;fill-rule:nonzero;fill:#1e1e1e;fill-opacity:1;" d="M 298.785156 278.296875 L 483.058594 278.296875 L 483.058594 414.246094 L 298.785156 414.246094 Z M 298.785156 278.296875 "/></g></g><g clip-rule="nonzero" clip-path="url(#d36acc60a5)"><g clip-rule="nonzero" clip-path="url(#7d4366bc50)"><path style=" stroke:none;fill-rule:nonzero;fill:#1e1e1e;fill-opacity:1;" d="M 7.050781 167.726562 L 175.480469 167.726562 L 175.480469 223.796875 L 7.050781 223.796875 Z M 7.050781 167.726562 "/></g></g><g clip-rule="nonzero" clip-path="url(#7c8662c5cf)"><g clip-rule="nonzero" clip-path="url(#d16e176787)"><path style=" stroke:none;fill-rule:nonzero;fill:#1e1e1e;fill-opacity:1;" d="M 6.972656 212.867188 L 135.0625 212.867188 L 135.0625 469.542969 L 6.972656 469.542969 Z M 6.972656 212.867188 "/></g></g><g clip-rule="nonzero" clip-path="url(#16fc0e7778)"><g clip-rule="nonzero" clip-path="url(#6f870f2c03)"><path style=" stroke:none;fill-rule:nonzero;fill:#1e1e1e;fill-opacity:1;" d="M 160.140625 204.785156 L 198.84375 204.785156 L 198.84375 340.546875 L 160.140625 340.546875 Z M 160.140625 204.785156 "/></g></g><g clip-rule="nonzero" clip-path="url(#ff4dbdd9ce)"><g clip-rule="nonzero" clip-path="url(#3cc3e4fe97)"><path style=" stroke:none;fill-rule:nonzero;fill:#1e1e1e;fill-opacity:1;" d="M 142.773438 205.53125 L 178.332031 205.53125 L 178.332031 358.878906 L 142.773438 358.878906 Z M 142.773438 205.53125 "/></g></g><g clip-rule="nonzero" clip-path="url(#c94965554c)"><g clip-rule="nonzero" clip-path="url(#dae27d67d1)"><path style=" stroke:none;fill-rule:nonzero;fill:#1e1e1e;fill-opacity:1;" d="M 181.851562 302.777344 L 234.554688 302.777344 L 234.554688 362.683594 L 181.851562 362.683594 Z M 181.851562 302.777344 "/></g></g><g clip-rule="nonzero" clip-path="url(#d0effee78f)"><g clip-rule="nonzero" clip-path="url(#d54dacd503)"><path style=" stroke:none;fill-rule:nonzero;fill:#1e1e1e;fill-opacity:1;" d="M 218.082031 322.914062 L 270.636719 322.914062 L 270.636719 381.011719 L 218.082031 381.011719 Z M 218.082031 322.914062 "/></g></g><g clip-rule="nonzero" clip-path="url(#b1c7c1db7c)"><g clip-rule="nonzero" clip-path="url(#d03ea3bdca)"><path style=" stroke:none;fill-rule:nonzero;fill:#1e1e1e;fill-opacity:1;" d="M 254.390625 344.398438 L 308.964844 344.398438 L 308.964844 416.667969 L 254.390625 416.667969 Z M 254.390625 344.398438 "/></g></g><g clip-rule="nonzero" clip-path="url(#6ba13277b5)"><g clip-rule="nonzero" clip-path="url(#e047bdbbd7)"><path style=" stroke:none;fill-rule:nonzero;fill:#1e1e1e;fill-opacity:1;" d="M 62.445312 315.652344 L 155.574219 315.652344 L 155.574219 469.53125 L 62.445312 469.53125 Z M 62.445312 315.652344 "/></g></g><g clip-rule="nonzero" clip-path="url(#27bd18265c)"><g clip-rule="nonzero" clip-path="url(#2fdd1a0773)"><path style=" stroke:none;fill-rule:nonzero;fill:#1e1e1e;fill-opacity:1;" d="M 122.410156 394.183594 L 309.167969 394.183594 L 309.167969 528.859375 L 122.410156 528.859375 Z M 122.410156 394.183594 "/></g></g><g clip-rule="nonzero" clip-path="url(#bdbe7c08c2)"><g clip-rule="nonzero" clip-path="url(#c06d27354f)"><path style=" stroke:none;fill-rule:nonzero;fill:#1e1e1e;fill-opacity:1;" d="M 514.386719 72.726562 L 532.578125 72.726562 L 532.578125 458.582031 L 514.386719 458.582031 Z M 514.386719 72.726562 "/></g></g><g clip-rule="nonzero" clip-path="url(#32fc1177dc)"><g clip-rule="nonzero" clip-path="url(#7e044d4eeb)"><path style=" stroke:none;fill-rule:nonzero;fill:#1e1e1e;fill-opacity:1;" d="M 340.109375 440.523438 L 533.003906 440.523438 L 533.003906 458.414062 L 340.109375 458.414062 Z M 340.109375 440.523438 "/></g></g><g clip-rule="nonzero" clip-path="url(#86672b10b8)"><g clip-rule="nonzero" clip-path="url(#d09b423882)"><path style=" stroke:none;fill-rule:nonzero;fill:#1e1e1e;fill-opacity:1;" d="M 207.152344 115.699219 L 225.269531 115.699219 L 225.269531 202.882812 L 207.152344 202.882812 Z M 207.152344 115.699219 "/></g></g><g clip-rule="nonzero" clip-path="url(#c7a527d8bf)"><g clip-rule="nonzero" clip-path="url(#716d2c5683)"><path style=" stroke:none;fill-rule:nonzero;fill:#1e1e1e;fill-opacity:1;" d="M 206.40625 112.179688 L 295.179688 112.179688 L 295.179688 128.050781 L 206.40625 128.050781 Z M 206.40625 112.179688 "/></g></g><g clip-rule="nonzero" clip-path="url(#0a4f79f007)"><g clip-rule="nonzero" clip-path="url(#1b2eb2c441)"><path style=" stroke:none;fill-rule:nonzero;fill:#1e1e1e;fill-opacity:1;" d="M 279.992188 112.179688 L 298.632812 112.179688 L 298.632812 204.4375 L 279.992188 204.4375 Z M 279.992188 112.179688 "/></g></g><g clip-rule="nonzero" clip-path="url(#15b210b74d)"><g clip-rule="nonzero" clip-path="url(#3bf35008ad)"><path style=" stroke:none;fill-rule:nonzero;fill:#1e1e1e;fill-opacity:1;" d="M 212.46875 185.917969 L 295.132812 185.917969 L 295.132812 202.6875 L 212.46875 202.6875 Z M 212.46875 185.917969 "/></g></g><g clip-rule="nonzero" clip-path="url(#2257f81bb3)"><g clip-rule="nonzero" clip-path="url(#b4b45e2cd8)"><path style=" stroke:none;fill-rule:nonzero;fill:#1e1e1e;fill-opacity:1;" d="M 328.503906 113.453125 L 422.207031 113.453125 L 422.207031 205.007812 L 328.503906 205.007812 Z M 328.503906 113.453125 "/></g></g><g clip-rule="nonzero" clip-path="url(#59e8afbd7e)"><g clip-rule="nonzero" clip-path="url(#450a277b13)"><path style=" stroke:none;fill-rule:nonzero;fill:#1e1e1e;fill-opacity:1;" d="M 320.867188 237.496094 L 379.335938 237.496094 L 379.335938 325.65625 L 320.867188 325.65625 Z M 320.867188 237.496094 "/></g></g><g clip-rule="nonzero" clip-path="url(#80685c5c42)"><g clip-rule="nonzero" clip-path="url(#c90c027741)"><path style=" stroke:none;fill-rule:nonzero;fill:#1e1e1e;fill-opacity:1;" d="M 322.890625 309.738281 L 428.960938 309.738281 L 428.960938 325.757812 L 322.890625 325.757812 Z M 322.890625 309.738281 "/></g></g><g clip-rule="nonzero" clip-path="url(#e3a3efd527)"><g clip-rule="nonzero" clip-path="url(#cc0f185644)"><path style=" stroke:none;fill-rule:nonzero;fill:#1e1e1e;fill-opacity:1;" d="M 367.582031 238.171875 L 429.417969 238.171875 L 429.417969 327.300781 L 367.582031 327.300781 Z M 367.582031 238.171875 "/></g></g></g></svg>