<svg xmlns="http://www.w3.org/2000/svg" xmlns:xlink="http://www.w3.org/1999/xlink" width="720" zoomAndPan="magnify" viewBox="0 0 540 540.000001" height="720" preserveAspectRatio="xMidYMid meet" version="1.2"><defs><clipPath id="098e453486"><path d="M 0.5 0 L 539.5 0 L 539.5 539 L 0.5 539 Z M 0.5 0 "/></clipPath></defs><g id="fb23e23b3d"><path style=" stroke:none;fill-rule:nonzero;fill:currentColor;fill-opacity:1;" d="M 270.003906 126.421875 C 191.105469 126.421875 126.914062 190.589844 126.914062 269.488281 C 126.914062 348.386719 191.105469 412.578125 270.003906 412.578125 C 348.902344 412.578125 413.09375 348.386719 413.09375 269.488281 C 413.09375 190.589844 348.902344 126.421875 270.003906 126.421875 Z M 270.003906 362.085938 C 218.957031 362.085938 177.425781 320.542969 177.425781 269.488281 C 177.425781 218.4375 218.957031 176.914062 270.003906 176.914062 C 321.050781 176.914062 362.578125 218.4375 362.578125 269.488281 C 362.578125 320.542969 321.050781 362.085938 270.003906 362.085938 Z M 270.003906 362.085938 "/><path style=" stroke:none;fill-rule:nonzero;fill:currentColor;fill-opacity:1;" d="M 418.46875 92.097656 C 402.5 92.097656 389.550781 105.054688 389.550781 121.019531 C 389.550781 137.003906 402.5 149.941406 418.46875 149.941406 C 434.4375 149.941406 447.386719 137.003906 447.386719 121.019531 C 447.386719 105.054688 434.4375 92.097656 418.46875 92.097656 Z M 418.46875 92.097656 "/><g clip-rule="nonzero" clip-path="url(#098e453486)"><path style=" stroke:none;fill-rule:nonzero;fill:currentColor;fill-opacity:1;" d="M 411.160156 0.015625 L 128.839844 0.015625 C 58.074219 0.015625 0.5 57.566406 0.5 128.328125 L 0.5 410.652344 C 0.5 481.410156 58.074219 538.988281 128.839844 538.988281 L 411.160156 538.988281 C 481.925781 538.988281 539.5 481.410156 539.5 410.652344 L 539.5 128.328125 C 539.5 57.566406 481.925781 0.015625 411.160156 0.015625 Z M 488.988281 410.652344 C 488.988281 453.566406 454.070312 488.496094 411.160156 488.496094 L 128.839844 488.496094 C 85.929688 488.496094 51.011719 453.566406 51.011719 410.652344 L 51.011719 128.328125 C 51.011719 85.414062 85.929688 50.503906 128.839844 50.503906 L 411.160156 50.503906 C 454.070312 50.503906 488.988281 85.414062 488.988281 128.328125 Z M 488.988281 410.652344 "/></g></g></svg>