<svg xmlns="http://www.w3.org/2000/svg" xmlns:xlink="http://www.w3.org/1999/xlink" width="720" zoomAndPan="magnify" viewBox="0 0 540 540.000001" height="720" preserveAspectRatio="xMidYMid meet" version="1.2"><defs><clipPath id="417371b159"><path d="M 0.5 0 L 539.5 0 L 539.5 539 L 0.5 539 Z M 0.5 0 "/></clipPath></defs><g id="2124418edf"><g clip-rule="nonzero" clip-path="url(#417371b159)"><path style=" stroke:none;fill-rule:nonzero;fill:currentColor;fill-opacity:1;" d="M 539.503906 457.046875 C 539.503906 502.28125 502.832031 538.949219 457.597656 538.949219 L 82.421875 538.949219 C 37.1875 538.949219 0.519531 502.28125 0.519531 457.046875 L 0.519531 81.871094 C 0.519531 36.632812 37.1875 -0.0351562 82.421875 -0.0351562 L 457.597656 -0.0351562 C 502.832031 -0.0351562 539.503906 36.632812 539.503906 81.871094 Z M 539.503906 457.046875 "/></g><path style=" stroke:none;fill-rule:nonzero;fill:#ffffff;fill-opacity:1;" d="M 213.644531 192.261719 C 213.644531 193.578125 213.578125 194.894531 213.449219 196.207031 C 213.320312 197.519531 213.128906 198.824219 212.871094 200.117188 C 212.613281 201.410156 212.292969 202.6875 211.910156 203.949219 C 211.527344 205.210938 211.082031 206.449219 210.578125 207.667969 C 210.074219 208.886719 209.511719 210.078125 208.890625 211.242188 C 208.269531 212.402344 207.589844 213.535156 206.859375 214.628906 C 206.125 215.726562 205.339844 216.785156 204.503906 217.804688 C 203.667969 218.824219 202.785156 219.800781 201.851562 220.730469 C 200.917969 221.664062 199.941406 222.546875 198.921875 223.386719 C 197.902344 224.222656 196.847656 225.007812 195.75 225.738281 C 194.652344 226.472656 193.523438 227.148438 192.359375 227.769531 C 191.199219 228.390625 190.007812 228.957031 188.789062 229.460938 C 187.570312 229.964844 186.332031 230.40625 185.070312 230.789062 C 183.804688 231.171875 182.527344 231.492188 181.234375 231.75 C 179.941406 232.007812 178.640625 232.203125 177.328125 232.332031 C 176.015625 232.460938 174.699219 232.523438 173.378906 232.523438 C 172.0625 232.523438 170.746094 232.460938 169.433594 232.332031 C 168.121094 232.203125 166.820312 232.007812 165.527344 231.75 C 164.230469 231.492188 162.953125 231.171875 161.691406 230.789062 C 160.429688 230.40625 159.191406 229.964844 157.972656 229.460938 C 156.753906 228.957031 155.5625 228.390625 154.398438 227.769531 C 153.238281 227.148438 152.109375 226.472656 151.011719 225.738281 C 149.914062 225.007812 148.855469 224.222656 147.835938 223.386719 C 146.816406 222.546875 145.84375 221.664062 144.910156 220.730469 C 143.976562 219.800781 143.09375 218.824219 142.257812 217.804688 C 141.417969 216.785156 140.636719 215.726562 139.902344 214.628906 C 139.171875 213.535156 138.492188 212.402344 137.871094 211.242188 C 137.25 210.078125 136.6875 208.886719 136.183594 207.667969 C 135.675781 206.449219 135.234375 205.210938 134.851562 203.949219 C 134.46875 202.6875 134.148438 201.410156 133.890625 200.117188 C 133.632812 198.824219 133.441406 197.519531 133.3125 196.207031 C 133.179688 194.894531 133.117188 193.578125 133.117188 192.261719 C 133.117188 190.941406 133.179688 189.625 133.3125 188.316406 C 133.441406 187.003906 133.632812 185.699219 133.890625 184.40625 C 134.148438 183.113281 134.46875 181.835938 134.851562 180.574219 C 135.234375 179.3125 135.675781 178.070312 136.183594 176.851562 C 136.6875 175.632812 137.25 174.445312 137.871094 173.28125 C 138.492188 172.117188 139.171875 170.988281 139.902344 169.890625 C 140.636719 168.796875 141.417969 167.738281 142.257812 166.71875 C 143.09375 165.699219 143.976562 164.722656 144.910156 163.789062 C 145.84375 162.859375 146.816406 161.972656 147.835938 161.136719 C 148.855469 160.300781 149.914062 159.515625 151.011719 158.78125 C 152.109375 158.050781 153.238281 157.375 154.398438 156.75 C 155.5625 156.128906 156.753906 155.566406 157.972656 155.0625 C 159.191406 154.558594 160.429688 154.113281 161.691406 153.730469 C 162.953125 153.347656 164.230469 153.027344 165.527344 152.769531 C 166.820312 152.515625 168.121094 152.320312 169.433594 152.191406 C 170.746094 152.0625 172.0625 151.996094 173.378906 151.996094 C 174.699219 151.996094 176.015625 152.0625 177.328125 152.191406 C 178.640625 152.320312 179.941406 152.515625 181.234375 152.769531 C 182.527344 153.027344 183.804688 153.347656 185.070312 153.730469 C 186.332031 154.113281 187.570312 154.558594 188.789062 155.0625 C 190.007812 155.566406 191.199219 156.128906 192.359375 156.75 C 193.523438 157.375 194.652344 158.050781 195.75 158.78125 C 196.847656 159.515625 197.902344 160.300781 198.921875 161.136719 C 199.941406 161.972656 200.917969 162.859375 201.851562 163.789062 C 202.785156 164.722656 203.667969 165.699219 204.503906 166.71875 C 205.339844 167.738281 206.125 168.796875 206.859375 169.890625 C 207.589844 170.988281 208.269531 172.117188 208.890625 173.28125 C 209.511719 174.445312 210.074219 175.632812 210.578125 176.851562 C 211.082031 178.070312 211.527344 179.3125 211.910156 180.574219 C 212.292969 181.835938 212.613281 183.113281 212.871094 184.40625 C 213.128906 185.699219 213.320312 187.003906 213.449219 188.316406 C 213.578125 189.625 213.644531 190.941406 213.644531 192.261719 Z M 213.644531 192.261719 "/><path style=" stroke:none;fill-rule:nonzero;fill:#ffffff;fill-opacity:1;" d="M 138.671875 262.207031 L 207.84375 262.207031 L 207.84375 484.734375 L 138.671875 484.734375 Z M 138.671875 262.207031 "/><path style=" stroke:none;fill-rule:nonzero;fill:#ffffff;fill-opacity:1;" d="M 251.347656 262.207031 L 317.183594 262.207031 L 317.183594 484.734375 L 251.347656 484.734375 Z M 251.347656 262.207031 "/><path style=" stroke:none;fill-rule:nonzero;fill:#ffffff;fill-opacity:1;" d="M 254.191406 380.6875 L 320.027344 380.6875 L 320.027344 484.734375 L 254.191406 484.734375 Z M 254.191406 380.6875 "/><path style=" stroke:none;fill-rule:nonzero;fill:#ffffff;fill-opacity:1;" d="M 320.027344 380.6875 C 320.027344 380.6875 319 351.824219 326.609375 336.816406 C 326.609375 336.816406 334.222656 318.335938 358.148438 318.226562 C 358.148438 318.226562 386.210938 313.328125 394.257812 341.171875 C 394.257812 341.171875 397.304688 356.613281 397.304688 363.140625 C 397.304688 369.667969 397.523438 484.734375 397.523438 484.734375 L 466.472656 484.734375 L 466.472656 357.269531 C 466.472656 357.269531 471.480469 285.265625 428.261719 265.542969 C 428.261719 265.542969 357.203125 233.640625 318.636719 292.226562 C 318.636719 292.226562 310.226562 298.027344 309.0625 281.785156 C 307.902344 265.542969 298.042969 306.726562 297.75 307.601562 C 297.460938 308.46875 309.0625 389.675781 309.0625 389.675781 Z M 320.027344 380.6875 "/></g></svg>