<svg xmlns="http://www.w3.org/2000/svg" xmlns:xlink="http://www.w3.org/1999/xlink" width="720" zoomAndPan="magnify" viewBox="0 0 540 540.000001" height="720" preserveAspectRatio="xMidYMid meet" version="1.2"><defs><clipPath id="a0791bfc66"><path d="M 0.5 77.144531 L 539.5 77.144531 L 539.5 461.933594 L 0.5 461.933594 Z M 0.5 77.144531 "/></clipPath></defs><g id="1f3ea17112"><g clip-rule="nonzero" clip-path="url(#a0791bfc66)"><path style=" stroke:none;fill-rule:nonzero;fill:currentColor;fill-opacity:1;" d="M 520.058594 91.382812 C 517.417969 89.078125 514.59375 87.027344 511.578125 85.238281 C 508.566406 83.449219 505.417969 81.945312 502.128906 80.730469 C 498.84375 79.511719 495.476562 78.601562 492.023438 78 C 488.570312 77.398438 485.09375 77.113281 481.589844 77.144531 L 58.410156 77.144531 C 55.007812 77.144531 51.628906 77.445312 48.28125 78.054688 C 44.929688 78.664062 41.660156 79.570312 38.476562 80.769531 C 35.289062 81.96875 32.234375 83.441406 29.316406 85.195312 C 26.394531 86.945312 23.65625 88.945312 21.09375 91.1875 C 19.515625 92.53125 18.007812 93.953125 16.582031 95.457031 C 15.152344 96.960938 13.808594 98.535156 12.550781 100.183594 C 11.292969 101.832031 10.125 103.542969 9.050781 105.316406 C 7.976562 107.089844 7.003906 108.917969 6.125 110.796875 C 5.246094 112.675781 4.472656 114.59375 3.804688 116.558594 C 3.132812 118.519531 2.570312 120.511719 2.113281 122.535156 C 1.660156 124.558594 1.3125 126.601562 1.078125 128.660156 C 0.84375 130.722656 0.71875 132.789062 0.707031 134.863281 L 0.707031 404.214844 C 0.707031 406.105469 0.796875 407.988281 0.984375 409.871094 C 1.167969 411.753906 1.445312 413.621094 1.816406 415.472656 C 2.183594 417.328125 2.640625 419.160156 3.191406 420.96875 C 3.738281 422.777344 4.375 424.554688 5.097656 426.300781 C 5.820312 428.046875 6.628906 429.753906 7.519531 431.421875 C 8.410156 433.089844 9.382812 434.707031 10.429688 436.28125 C 11.480469 437.851562 12.605469 439.367188 13.804688 440.828125 C 15.003906 442.292969 16.269531 443.691406 17.609375 445.027344 C 18.945312 446.363281 20.34375 447.632812 21.804688 448.832031 C 23.265625 450.03125 24.78125 451.15625 26.351562 452.203125 C 27.921875 453.253906 29.542969 454.226562 31.210938 455.117188 C 32.875 456.007812 34.582031 456.816406 36.328125 457.539062 C 38.074219 458.261719 39.851562 458.898438 41.660156 459.445312 C 43.46875 459.996094 45.300781 460.453125 47.152344 460.824219 C 49.007812 461.191406 50.875 461.46875 52.753906 461.652344 C 54.636719 461.839844 56.523438 461.933594 58.410156 461.933594 L 481.589844 461.933594 C 483.476562 461.933594 485.363281 461.839844 487.246094 461.652344 C 489.125 461.46875 490.992188 461.191406 492.847656 460.824219 C 494.699219 460.453125 496.53125 459.996094 498.339844 459.445312 C 500.148438 458.898438 501.925781 458.261719 503.671875 457.539062 C 505.417969 456.816406 507.125 456.007812 508.789062 455.117188 C 510.457031 454.226562 512.078125 453.253906 513.648438 452.203125 C 515.21875 451.15625 516.734375 450.03125 518.195312 448.832031 C 519.65625 447.632812 521.054688 446.363281 522.390625 445.027344 C 523.730469 443.691406 524.996094 442.292969 526.195312 440.828125 C 527.394531 439.367188 528.519531 437.851562 529.570312 436.28125 C 530.617188 434.707031 531.589844 433.089844 532.480469 431.421875 C 533.371094 429.753906 534.179688 428.046875 534.902344 426.300781 C 535.625 424.554688 536.261719 422.777344 536.808594 420.96875 C 537.359375 419.160156 537.816406 417.328125 538.183594 415.472656 C 538.554688 413.621094 538.832031 411.753906 539.015625 409.871094 C 539.203125 407.988281 539.292969 406.105469 539.292969 404.214844 L 539.292969 134.863281 C 539.308594 132.820312 539.21875 130.78125 539.019531 128.746094 C 538.816406 126.710938 538.511719 124.695312 538.09375 122.691406 C 537.679688 120.691406 537.160156 118.71875 536.535156 116.773438 C 535.914062 114.824219 535.1875 112.917969 534.359375 111.050781 C 533.535156 109.179688 532.609375 107.359375 531.589844 105.589844 C 530.570312 103.816406 529.457031 102.105469 528.257812 100.453125 C 527.054688 98.800781 525.769531 97.214844 524.398438 95.699219 C 523.027344 94.183594 521.582031 92.746094 520.058594 91.382812 Z M 462.351562 115.625 L 270 246.257812 L 77.648438 115.625 Z M 481.589844 423.453125 L 58.410156 423.453125 C 57.78125 423.453125 57.152344 423.421875 56.527344 423.359375 C 55.898438 423.300781 55.277344 423.207031 54.660156 423.082031 C 54.042969 422.960938 53.429688 422.808594 52.828125 422.625 C 52.226562 422.441406 51.632812 422.230469 51.050781 421.988281 C 50.46875 421.746094 49.898438 421.480469 49.34375 421.179688 C 48.789062 420.882812 48.25 420.5625 47.726562 420.210938 C 47.203125 419.859375 46.695312 419.484375 46.210938 419.085938 C 45.722656 418.6875 45.257812 418.265625 44.808594 417.816406 C 44.363281 417.371094 43.941406 416.90625 43.542969 416.417969 C 43.144531 415.933594 42.769531 415.425781 42.417969 414.902344 C 42.070312 414.378906 41.746094 413.839844 41.449219 413.285156 C 41.152344 412.726562 40.882812 412.160156 40.640625 411.578125 C 40.398438 410.996094 40.1875 410.402344 40.003906 409.796875 C 39.820312 409.195312 39.667969 408.585938 39.546875 407.96875 C 39.421875 407.347656 39.332031 406.726562 39.269531 406.101562 C 39.207031 405.472656 39.175781 404.84375 39.175781 404.214844 L 39.175781 136.015625 L 259.226562 285.507812 C 260.019531 286.042969 260.84375 286.515625 261.707031 286.925781 C 262.566406 287.339844 263.453125 287.683594 264.367188 287.964844 C 265.28125 288.242188 266.207031 288.453125 267.152344 288.59375 C 268.097656 288.734375 269.046875 288.808594 270 288.808594 C 270.953125 288.808594 271.902344 288.734375 272.847656 288.59375 C 273.792969 288.453125 274.71875 288.242188 275.632812 287.964844 C 276.546875 287.683594 277.433594 287.339844 278.292969 286.925781 C 279.15625 286.515625 279.980469 286.042969 280.773438 285.507812 L 500.824219 136.015625 L 500.824219 404.214844 C 500.824219 404.84375 500.792969 405.472656 500.730469 406.101562 C 500.667969 406.726562 500.578125 407.347656 500.453125 407.96875 C 500.332031 408.585938 500.179688 409.195312 499.996094 409.800781 C 499.8125 410.402344 499.601562 410.996094 499.359375 411.578125 C 499.117188 412.160156 498.847656 412.726562 498.550781 413.285156 C 498.253906 413.839844 497.929688 414.378906 497.582031 414.902344 C 497.230469 415.425781 496.855469 415.933594 496.457031 416.417969 C 496.058594 416.90625 495.636719 417.371094 495.1875 417.816406 C 494.742188 418.265625 494.277344 418.6875 493.789062 419.085938 C 493.304688 419.484375 492.796875 419.859375 492.273438 420.210938 C 491.75 420.5625 491.210938 420.882812 490.65625 421.179688 C 490.101562 421.480469 489.53125 421.746094 488.949219 421.988281 C 488.367188 422.230469 487.773438 422.441406 487.171875 422.625 C 486.570312 422.808594 485.957031 422.960938 485.339844 423.082031 C 484.722656 423.207031 484.101562 423.300781 483.472656 423.359375 C 482.847656 423.421875 482.21875 423.453125 481.589844 423.453125 Z M 481.589844 423.453125 "/></g></g></svg>