<svg xmlns="http://www.w3.org/2000/svg" xmlns:xlink="http://www.w3.org/1999/xlink" width="720" zoomAndPan="magnify" viewBox="0 0 540 540.000001" height="720" preserveAspectRatio="xMidYMid meet" version="1.2"><defs><clipPath id="55e38fd2fb"><path d="M 43 41.449219 L 498 41.449219 L 498 474 L 43 474 Z M 43 41.449219 "/></clipPath></defs><g id="8045e6252e"><g clip-rule="nonzero" clip-path="url(#55e38fd2fb)"><path style=" stroke:none;fill-rule:nonzero;fill:currentColor;fill-opacity:1;" d="M 495.011719 41.589844 C 495.8125 41.507812 496.484375 41.476562 497.292969 41.558594 L 497.371094 41.871094 C 497.800781 44.15625 497.441406 47.164062 497.441406 49.539062 C 497.433594 131.726562 497.390625 213.914062 497.4375 296.101562 C 497.449219 316.066406 498.679688 326.921875 487.058594 344.542969 C 457.546875 389.308594 372.402344 394.777344 350.226562 342.710938 C 344.316406 328.824219 346.234375 312.742188 352.757812 299.378906 C 372.828125 258.261719 427.707031 242.796875 467.824219 262.488281 L 467.902344 115.636719 L 197.957031 164.484375 L 197.941406 239.328125 C 197.941406 289.78125 197.925781 340.234375 197.941406 390.691406 C 197.941406 397.082031 198.464844 403.964844 197.378906 410.253906 C 184.949219 482.515625 63.804688 497.371094 45.421875 429.734375 C 41.460938 415.164062 45.464844 399.722656 52.792969 386.9375 C 73.746094 350.363281 130.339844 331.320312 167.648438 352.863281 L 167.800781 101.117188 Z M 495.011719 41.589844 "/></g></g></svg>