<svg xmlns="http://www.w3.org/2000/svg" xmlns:xlink="http://www.w3.org/1999/xlink" width="720" zoomAndPan="magnify" viewBox="0 0 540 540.000001" height="720" preserveAspectRatio="xMidYMid meet" version="1.2"><defs><clipPath id="5ed0841177"><path d="M 13 38 L 510 38 L 510 491 L 13 491 Z M 13 38 "/></clipPath><clipPath id="626f8106ff"><path d="M 13.191406 48.316406 L 500.082031 38.0625 L 509.390625 480.019531 L 22.5 490.277344 Z M 13.191406 48.316406 "/></clipPath><clipPath id="aa3d7570c8"><path d="M 1.449219 26.6875 L 42.800781 26.6875 L 42.800781 518.460938 L 1.449219 518.460938 Z M 1.449219 26.6875 "/></clipPath><clipPath id="9ba4b04787"><path d="M 25.820312 35.023438 C 39.796875 374.878906 48.019531 487.347656 38.152344 510.167969 C 36.507812 515.058594 32.398438 518.316406 29.929688 518.316406 C 27.464844 517.503906 21.707031 510.984375 21.707031 509.351562 C 22.53125 506.09375 34.863281 502.832031 36.507812 504.460938 C 37.328125 506.09375 33.21875 517.503906 30.753906 518.316406 C 28.285156 518.316406 24.996094 515.871094 21.707031 510.167969 C 5.265625 473.492188 -7.070312 71.699219 9.375 35.023438 C 11.84375 29.316406 15.128906 26.875 18.417969 26.875 C 20.886719 26.875 25.820312 35.023438 25.820312 35.023438 "/></clipPath><clipPath id="0268abbe2c"><path d="M 9.265625 38.488281 L 491.335938 38.488281 L 491.335938 61.664062 L 9.265625 61.664062 Z M 9.265625 38.488281 "/></clipPath><clipPath id="78dd5389a9"><path d="M 17.597656 39.914062 C 488.714844 39.097656 492.003906 42.359375 491.179688 44.804688 C 491.179688 48.0625 484.605469 53.769531 482.136719 52.953125 C 479.671875 52.136719 476.382812 39.914062 478.027344 39.097656 C 478.847656 37.46875 491.179688 41.542969 491.179688 43.988281 C 492.003906 46.433594 487.894531 50.507812 482.960938 52.953125 C 468.980469 59.472656 427.871094 55.398438 385.117188 56.214844 C 301.253906 57.027344 48.839844 67.625 17.597656 56.214844 C 11.84375 53.769531 9.375 51.324219 9.375 48.878906 C 8.554688 46.433594 17.597656 39.914062 17.597656 39.914062 "/></clipPath><clipPath id="0781e86694"><path d="M 481 33.269531 L 524.070312 33.269531 L 524.070312 508.910156 L 481 508.910156 Z M 481 33.269531 "/></clipPath><clipPath id="b43d708195"><path d="M 501.046875 41.542969 C 521.601562 506.09375 518.3125 508.539062 515.847656 508.539062 C 512.558594 508.539062 508.449219 504.460938 507.625 502.015625 C 507.625 498.757812 511.738281 492.238281 514.203125 492.238281 C 517.492188 491.421875 524.070312 496.3125 524.070312 499.574219 C 524.070312 502.015625 519.136719 507.722656 516.667969 508.539062 C 514.203125 508.539062 510.09375 506.90625 508.449219 502.832031 C 498.582031 486.53125 501.046875 405.03125 497.757812 343.09375 C 493.648438 259.148438 473.09375 69.253906 484.605469 41.542969 C 487.070312 35.839844 491.179688 33.394531 494.46875 33.394531 C 496.9375 33.394531 501.046875 41.542969 501.046875 41.542969 "/></clipPath><clipPath id="770d92ca7d"><path d="M 24.976562 461.253906 L 537.558594 461.253906 L 537.558594 501.878906 L 24.976562 501.878906 Z M 24.976562 461.253906 "/></clipPath><clipPath id="1f8a6fab48"><path d="M 33.21875 479.199219 C 304.542969 473.492188 315.230469 468.601562 344.832031 466.15625 C 390.875 462.898438 507.625 457.191406 529.003906 466.15625 C 533.9375 468.601562 537.222656 471.863281 537.222656 475.121094 C 537.222656 477.566406 530.648438 483.273438 528.179688 482.457031 C 525.714844 481.640625 521.601562 470.234375 523.246094 468.601562 C 524.890625 466.972656 536.402344 471.046875 537.222656 473.492188 C 538.046875 475.9375 534.757812 480.011719 529.003906 482.457031 C 491.179688 498.757812 71.039062 508.539062 33.21875 495.496094 C 28.285156 493.050781 25.820312 490.609375 24.996094 488.164062 C 24.996094 485.71875 33.21875 479.199219 33.21875 479.199219 "/></clipPath><clipPath id="6747b8c9bb"><path d="M 223.277344 126 L 318 126 L 318 392 L 223.277344 392 Z M 223.277344 126 "/></clipPath><clipPath id="dc1eb60c23"><path d="M 304.066406 169.910156 C 262.082031 139.8125 250.992188 146.148438 244.65625 158.027344 C 228.023438 189.714844 262.875 363.972656 249.410156 385.359375 C 246.242188 390.90625 238.320312 392.488281 236.734375 391.699219 C 234.359375 390.113281 235.945312 379.023438 237.527344 378.230469 C 239.90625 377.441406 249.410156 385.359375 249.410156 386.945312 C 248.617188 389.320312 239.113281 393.28125 235.152344 390.113281 C 220.101562 378.230469 220.894531 192.089844 230.398438 156.445312 C 234.359375 144.5625 237.527344 139.8125 243.863281 135.058594 C 250.992188 129.515625 262.875 124.761719 273.171875 126.34375 C 286.636719 129.515625 312.777344 151.691406 316.738281 160.40625 C 318.324219 164.367188 318.324219 169.910156 315.945312 171.496094 C 314.363281 173.078125 304.066406 169.910156 304.066406 169.910156 "/></clipPath><clipPath id="949b2e8117"><path d="M 163 233.042969 L 327.839844 233.042969 L 327.839844 273.886719 L 163 273.886719 Z M 163 233.042969 "/></clipPath><clipPath id="a0a64d5e37"><path d="M 163.070312 261.792969 C 187.625 234.863281 193.171875 233.277344 201.09375 233.277344 C 216.140625 233.277344 243.074219 253.871094 263.667969 253.871094 C 282.679688 253.871094 309.609375 234.070312 319.90625 236.445312 C 323.867188 237.238281 327.828125 241.199219 327.828125 244.367188 C 327.828125 246.746094 324.660156 251.496094 322.28125 251.496094 C 319.113281 252.289062 312.777344 248.328125 311.984375 245.953125 C 311.984375 242.785156 316.738281 236.445312 319.113281 236.445312 C 321.492188 236.445312 327.828125 244.367188 327.035156 248.328125 C 324.660156 256.25 296.9375 269.714844 279.507812 270.507812 C 258.914062 272.089844 225.648438 250.703125 209.804688 249.121094 C 201.09375 248.328125 195.546875 247.535156 190.003906 250.703125 C 182.875 254.664062 176.535156 273.675781 170.992188 273.675781 C 167.824219 273.675781 163.070312 261.792969 163.070312 261.792969 "/></clipPath><clipPath id="561c4e909e"><path d="M 303 340.15625 L 359.890625 340.15625 L 359.890625 401.828125 L 303 401.828125 Z M 303 340.15625 "/></clipPath><clipPath id="e6201bf56c"><path d="M 324.660156 366.351562 C 333.371094 386.945312 346.046875 368.726562 343.667969 363.972656 C 341.292969 359.222656 314.363281 365.558594 308.816406 361.597656 C 304.855469 359.222656 302.480469 353.675781 303.273438 350.507812 C 304.066406 348.132812 311.195312 344.964844 312.777344 346.546875 C 315.152344 347.339844 315.152344 360.804688 313.570312 361.597656 C 311.984375 362.390625 302.480469 353.675781 303.273438 351.300781 C 303.273438 348.925781 313.570312 346.546875 315.945312 348.132812 C 317.53125 349.71875 316.738281 359.222656 314.363281 360.804688 C 311.984375 362.390625 305.648438 360.804688 304.066406 358.429688 C 302.480469 356.054688 303.273438 350.507812 305.648438 348.132812 C 309.609375 343.378906 325.453125 338.628906 334.164062 341.003906 C 342.878906 343.378906 357.136719 354.46875 359.511719 363.972656 C 361.09375 371.894531 355.550781 384.570312 350.796875 390.90625 C 346.835938 396.449219 341.292969 400.410156 335.75 401.203125 C 330.203125 402.789062 323.074219 400.410156 319.113281 396.449219 C 313.570312 392.488281 308.816406 380.609375 308.816406 373.480469 C 308.816406 367.933594 311.195312 360.015625 314.363281 359.222656 C 316.738281 358.429688 324.660156 366.351562 324.660156 366.351562 "/></clipPath></defs><g id="a81c9de718"><g clip-rule="nonzero" clip-path="url(#5ed0841177)"><g clip-rule="nonzero" clip-path="url(#626f8106ff)"><path style=" stroke:none;fill-rule:nonzero;fill:#ff7557;fill-opacity:1;" d="M 13.191406 48.316406 L 500.039062 38.0625 L 509.347656 480.023438 L 22.5 490.277344 Z M 13.191406 48.316406 "/></g></g><g clip-rule="nonzero" clip-path="url(#aa3d7570c8)"><g clip-rule="nonzero" clip-path="url(#9ba4b04787)"><path style=" stroke:none;fill-rule:nonzero;fill:#ff7557;fill-opacity:1;" d="M -23.511719 -5.726562 L 71.863281 -5.726562 L 71.863281 550.875 L -23.511719 550.875 Z M -23.511719 -5.726562 "/></g></g><g clip-rule="nonzero" clip-path="url(#0268abbe2c)"><g clip-rule="nonzero" clip-path="url(#78dd5389a9)"><path style=" stroke:none;fill-rule:nonzero;fill:#ff7557;fill-opacity:1;" d="M -23.511719 4.054688 L 524.777344 4.054688 L 524.777344 88.8125 L -23.511719 88.8125 Z M -23.511719 4.054688 "/></g></g><g clip-rule="nonzero" clip-path="url(#0781e86694)"><g clip-rule="nonzero" clip-path="url(#b43d708195)"><path style=" stroke:none;fill-rule:nonzero;fill:#ff7557;fill-opacity:1;" d="M 451.714844 0.792969 L 556.957031 0.792969 L 556.957031 540.976562 L 451.714844 540.976562 Z M 451.714844 0.792969 "/></g></g><g clip-rule="nonzero" clip-path="url(#770d92ca7d)"><g clip-rule="nonzero" clip-path="url(#1f8a6fab48)"><path style=" stroke:none;fill-rule:nonzero;fill:#ff7557;fill-opacity:1;" d="M -7.890625 433.558594 L 570.058594 433.558594 L 570.058594 528.097656 L -7.890625 528.097656 Z M -7.890625 433.558594 "/></g></g><g clip-rule="nonzero" clip-path="url(#6747b8c9bb)"><g clip-rule="nonzero" clip-path="url(#dc1eb60c23)"><path style=" stroke:none;fill-rule:nonzero;fill:#0c0b0b;fill-opacity:1;" d="M 198.714844 94.660156 L 348.421875 94.660156 L 348.421875 423.3125 L 198.714844 423.3125 Z M 198.714844 94.660156 "/></g></g><g clip-rule="nonzero" clip-path="url(#949b2e8117)"><g clip-rule="nonzero" clip-path="url(#a0a64d5e37)"><path style=" stroke:none;fill-rule:nonzero;fill:#010101;fill-opacity:1;" d="M 131.386719 201.59375 L 360.105469 201.59375 L 360.105469 306.152344 L 131.386719 306.152344 Z M 131.386719 201.59375 "/></g></g><g clip-rule="nonzero" clip-path="url(#561c4e909e)"><g clip-rule="nonzero" clip-path="url(#e6201bf56c)"><path style=" stroke:none;fill-rule:nonzero;fill:#0c0b0b;fill-opacity:1;" d="M 271.589844 309.320312 L 391.195312 309.320312 L 391.195312 433.597656 L 271.589844 433.597656 Z M 271.589844 309.320312 "/></g></g></g></svg>